G04*
G04 #@! TF.GenerationSoftware,Altium Limited,Altium Designer,23.10.1 (27)*
G04*
G04 Layer_Color=65535*
%FSLAX44Y44*%
%MOMM*%
G71*
G04*
G04 #@! TF.SameCoordinates,DC49990F-6EA9-493E-B2B0-75892BC7290B*
G04*
G04*
G04 #@! TF.FilePolarity,Positive*
G04*
G01*
G75*
%ADD10C,0.2500*%
%ADD11C,0.6000*%
%ADD12C,0.2000*%
%ADD13C,0.1270*%
%ADD14C,0.2300*%
%ADD15C,0.1600*%
%ADD16C,0.2540*%
D10*
X262750Y379750D02*
G03*
X262750Y379750I-1250J0D01*
G01*
X28250Y164700D02*
G03*
X28250Y164700I-1250J0D01*
G01*
X175500Y186750D02*
G03*
X175500Y186750I-1250J0D01*
G01*
X304500Y99750D02*
G03*
X304500Y99750I-1250J0D01*
G01*
X508500Y294250D02*
G03*
X508500Y294250I-1250J0D01*
G01*
X321750Y280450D02*
G03*
X321750Y280450I-1250J0D01*
G01*
X102000Y344250D02*
G03*
X102000Y344250I-1250J0D01*
G01*
X25250Y474750D02*
G03*
X25250Y474750I-1250J0D01*
G01*
X639600Y489500D02*
G03*
X639600Y489500I-1250J0D01*
G01*
X300250Y141500D02*
G03*
X300250Y141500I-1250J0D01*
G01*
D11*
X528250Y318750D02*
G03*
X528250Y318750I-3000J0D01*
G01*
D12*
X401300Y332350D02*
G03*
X401300Y332350I-1000J0D01*
G01*
X279000Y375250D02*
X280000D01*
X279000Y384250D02*
X280000D01*
X299852Y387112D02*
X314577D01*
X299852Y373388D02*
X314577D01*
X340000Y90250D02*
X362000D01*
X340000Y109750D02*
X362000D01*
X590250Y259500D02*
Y262000D01*
X604750Y259500D02*
Y262000D01*
X570000Y259750D02*
Y262250D01*
X584500Y259750D02*
Y262250D01*
X550250Y260000D02*
Y262500D01*
X564750Y260000D02*
Y262500D01*
X551209Y220709D02*
X579791D01*
X551209Y239291D02*
X579791D01*
X545500Y247611D02*
Y272773D01*
X523000Y247611D02*
Y272773D01*
X40100Y54600D02*
Y158700D01*
X13900Y54600D02*
X40100D01*
X13900D02*
Y158700D01*
X40100D01*
X193000Y59000D02*
Y173000D01*
X79000Y59000D02*
X84750D01*
X112250D02*
X159750D01*
X187250D02*
X193000D01*
X79000D02*
Y173000D01*
X84750D01*
X112250D02*
X159750D01*
X187250D02*
X193000D01*
X204000Y75000D02*
Y77500D01*
X218500Y75000D02*
Y77500D01*
X342137Y148612D02*
X356862D01*
X342137Y134887D02*
X356862D01*
X311500Y93500D02*
X322500D01*
X311500Y106000D02*
X322500D01*
X462500Y142750D02*
Y151750D01*
X486500Y142750D02*
Y151750D01*
X432000Y195250D02*
X434500D01*
X432000Y180750D02*
X434500D01*
X515250Y308750D02*
X568250D01*
X515250Y361750D02*
X568250D01*
X515250Y308750D02*
Y361750D01*
X568250Y308750D02*
Y361750D01*
X466750Y341500D02*
X469250D01*
X466750Y356000D02*
X469250D01*
X294750Y298711D02*
Y323773D01*
X317250Y298711D02*
Y323773D01*
X251250Y298461D02*
Y323523D01*
X273750Y298461D02*
Y323523D01*
X318025Y229975D02*
Y265025D01*
X252975Y229975D02*
X318025D01*
X252975D02*
Y265025D01*
X318025D01*
X110000Y322500D02*
X112500D01*
X110000Y337000D02*
X112500D01*
X82000Y358000D02*
Y472000D01*
X190250D02*
X196000D01*
X115250D02*
X162750D01*
X82000D02*
X87750D01*
X196000Y358000D02*
Y472000D01*
X190250Y358000D02*
X196000D01*
X115250D02*
X162750D01*
X82000D02*
X87750D01*
X37100Y364650D02*
Y468750D01*
X10900Y364650D02*
X37100D01*
X10900D02*
Y468750D01*
X37100D01*
X60520Y285970D02*
Y304970D01*
X21020D02*
X60520D01*
Y230970D02*
Y249970D01*
X21020Y230970D02*
X60520D01*
X185281Y222169D02*
Y251331D01*
X162719Y222169D02*
Y251331D01*
X131959Y265209D02*
X160541D01*
X131959Y283791D02*
X160541D01*
X105469Y222669D02*
Y251831D01*
X128031Y222669D02*
Y251831D01*
X371750Y281400D02*
X381750D01*
X371750Y294100D02*
X381750D01*
X652350Y444650D02*
Y471350D01*
X446650D02*
X477150D01*
X494850D02*
X527950D01*
X545650D02*
X578750D01*
X596450D02*
X629550D01*
X647250D02*
X652350D01*
X446650Y444650D02*
Y471350D01*
Y444650D02*
X451750D01*
X469450D02*
X502550D01*
X520250D02*
X553350D01*
X571050D02*
X604150D01*
X621850D02*
X652350D01*
X316500Y146000D02*
X317500D01*
X316500Y137000D02*
X317500D01*
X264150Y13350D02*
Y37450D01*
Y13350D02*
X472450D01*
Y37450D01*
X264150D02*
X472450D01*
X492750Y37465D02*
X650250D01*
X492750Y13335D02*
X650250D01*
X492750D02*
Y37465D01*
X650250Y13335D02*
Y37465D01*
Y495950D02*
Y520050D01*
X441950D02*
X650250D01*
X441950Y495950D02*
Y520050D01*
Y495950D02*
X650250D01*
X172710Y520065D02*
X431810D01*
X172710Y495935D02*
X431810D01*
X172710D02*
Y520065D01*
X431810Y495935D02*
Y520065D01*
D13*
X415050Y151990D02*
G03*
X415050Y151990I-500J0D01*
G01*
X404500Y310000D02*
Y322000D01*
X385000Y310000D02*
Y322000D01*
D14*
X238263Y487431D02*
X234597Y476433D01*
X238263Y487431D02*
X241929Y476433D01*
X238263Y485859D02*
X241405Y476433D01*
X235645Y479575D02*
X240358D01*
X233550Y476433D02*
X236692D01*
X239834D02*
X242976D01*
X245962Y483765D02*
Y476433D01*
X246485Y483765D02*
Y476433D01*
Y480622D02*
X247009Y482194D01*
X248056Y483241D01*
X249104Y483765D01*
X250675D01*
X251199Y483241D01*
Y482717D01*
X250675Y482194D01*
X250151Y482717D01*
X250675Y483241D01*
X244391Y483765D02*
X246485D01*
X244391Y476433D02*
X248056D01*
X259159Y487431D02*
Y476433D01*
X259683Y487431D02*
Y476433D01*
X259159Y482194D02*
X258111Y483241D01*
X257064Y483765D01*
X256017D01*
X254445Y483241D01*
X253398Y482194D01*
X252874Y480622D01*
Y479575D01*
X253398Y478004D01*
X254445Y476957D01*
X256017Y476433D01*
X257064D01*
X258111Y476957D01*
X259159Y478004D01*
X256017Y483765D02*
X254969Y483241D01*
X253922Y482194D01*
X253398Y480622D01*
Y479575D01*
X253922Y478004D01*
X254969Y476957D01*
X256017Y476433D01*
X257588Y487431D02*
X259683D01*
X259159Y476433D02*
X261254D01*
X264343Y483765D02*
Y478004D01*
X264867Y476957D01*
X266438Y476433D01*
X267486D01*
X269057Y476957D01*
X270104Y478004D01*
X264867Y483765D02*
Y478004D01*
X265391Y476957D01*
X266438Y476433D01*
X270104Y483765D02*
Y476433D01*
X270628Y483765D02*
Y476433D01*
X262772Y483765D02*
X264867D01*
X268533D02*
X270628D01*
X270104Y476433D02*
X272199D01*
X275184Y487431D02*
X274660Y486907D01*
X275184Y486383D01*
X275708Y486907D01*
X275184Y487431D01*
Y483765D02*
Y476433D01*
X275708Y483765D02*
Y476433D01*
X273613Y483765D02*
X275708D01*
X273613Y476433D02*
X277279D01*
X280840Y483765D02*
Y476433D01*
X281364Y483765D02*
Y476433D01*
Y482194D02*
X282411Y483241D01*
X283982Y483765D01*
X285030D01*
X286600Y483241D01*
X287124Y482194D01*
Y476433D01*
X285030Y483765D02*
X286077Y483241D01*
X286600Y482194D01*
Y476433D01*
X279269Y483765D02*
X281364D01*
X279269Y476433D02*
X282935D01*
X285030D02*
X288695D01*
X293251Y483765D02*
X291680Y483241D01*
X290633Y482194D01*
X290109Y480622D01*
Y479575D01*
X290633Y478004D01*
X291680Y476957D01*
X293251Y476433D01*
X294299D01*
X295870Y476957D01*
X296917Y478004D01*
X297441Y479575D01*
Y480622D01*
X296917Y482194D01*
X295870Y483241D01*
X294299Y483765D01*
X293251D01*
X292204Y483241D01*
X291157Y482194D01*
X290633Y480622D01*
Y479575D01*
X291157Y478004D01*
X292204Y476957D01*
X293251Y476433D01*
X294299D02*
X295346Y476957D01*
X296394Y478004D01*
X296917Y479575D01*
Y480622D01*
X296394Y482194D01*
X295346Y483241D01*
X294299Y483765D01*
X310534Y487431D02*
Y476433D01*
X311057Y487431D02*
Y476433D01*
X308962Y487431D02*
X312628D01*
X308962Y476433D02*
X316818D01*
Y479575D01*
X316294Y476433D01*
X318913Y480622D02*
X325197D01*
Y481670D01*
X324673Y482717D01*
X324150Y483241D01*
X323102Y483765D01*
X321531D01*
X319960Y483241D01*
X318913Y482194D01*
X318389Y480622D01*
Y479575D01*
X318913Y478004D01*
X319960Y476957D01*
X321531Y476433D01*
X322579D01*
X324150Y476957D01*
X325197Y478004D01*
X324673Y480622D02*
Y482194D01*
X324150Y483241D01*
X321531Y483765D02*
X320484Y483241D01*
X319436Y482194D01*
X318913Y480622D01*
Y479575D01*
X319436Y478004D01*
X320484Y476957D01*
X321531Y476433D01*
X330015Y483765D02*
X328444Y483241D01*
X327397Y482194D01*
X326873Y480622D01*
Y479575D01*
X327397Y478004D01*
X328444Y476957D01*
X330015Y476433D01*
X331063D01*
X332634Y476957D01*
X333681Y478004D01*
X334205Y479575D01*
Y480622D01*
X333681Y482194D01*
X332634Y483241D01*
X331063Y483765D01*
X330015D01*
X328968Y483241D01*
X327920Y482194D01*
X327397Y480622D01*
Y479575D01*
X327920Y478004D01*
X328968Y476957D01*
X330015Y476433D01*
X331063D02*
X332110Y476957D01*
X333157Y478004D01*
X333681Y479575D01*
Y480622D01*
X333157Y482194D01*
X332110Y483241D01*
X331063Y483765D01*
X337399D02*
Y476433D01*
X337923Y483765D02*
Y476433D01*
Y482194D02*
X338970Y483241D01*
X340541Y483765D01*
X341589D01*
X343160Y483241D01*
X343684Y482194D01*
Y476433D01*
X341589Y483765D02*
X342636Y483241D01*
X343160Y482194D01*
Y476433D01*
X335828Y483765D02*
X337923D01*
X335828Y476433D02*
X339494D01*
X341589D02*
X345255D01*
X347716Y482717D02*
Y482194D01*
X347192D01*
Y482717D01*
X347716Y483241D01*
X348763Y483765D01*
X350858D01*
X351906Y483241D01*
X352429Y482717D01*
X352953Y481670D01*
Y478004D01*
X353477Y476957D01*
X354000Y476433D01*
X352429Y482717D02*
Y478004D01*
X352953Y476957D01*
X354000Y476433D01*
X354524D01*
X352429Y481670D02*
X351906Y481146D01*
X348763Y480622D01*
X347192Y480099D01*
X346669Y479051D01*
Y478004D01*
X347192Y476957D01*
X348763Y476433D01*
X350335D01*
X351382Y476957D01*
X352429Y478004D01*
X348763Y480622D02*
X347716Y480099D01*
X347192Y479051D01*
Y478004D01*
X347716Y476957D01*
X348763Y476433D01*
X357666Y483765D02*
Y476433D01*
X358190Y483765D02*
Y476433D01*
Y480622D02*
X358714Y482194D01*
X359761Y483241D01*
X360808Y483765D01*
X362380D01*
X362903Y483241D01*
Y482717D01*
X362380Y482194D01*
X361856Y482717D01*
X362380Y483241D01*
X356095Y483765D02*
X358190D01*
X356095Y476433D02*
X359761D01*
X370863Y487431D02*
Y476433D01*
X371387Y487431D02*
Y476433D01*
X370863Y482194D02*
X369816Y483241D01*
X368769Y483765D01*
X367721D01*
X366150Y483241D01*
X365103Y482194D01*
X364579Y480622D01*
Y479575D01*
X365103Y478004D01*
X366150Y476957D01*
X367721Y476433D01*
X368769D01*
X369816Y476957D01*
X370863Y478004D01*
X367721Y483765D02*
X366674Y483241D01*
X365626Y482194D01*
X365103Y480622D01*
Y479575D01*
X365626Y478004D01*
X366674Y476957D01*
X367721Y476433D01*
X369292Y487431D02*
X371387D01*
X370863Y476433D02*
X372958D01*
X377619Y483765D02*
X376048Y483241D01*
X375001Y482194D01*
X374477Y480622D01*
Y479575D01*
X375001Y478004D01*
X376048Y476957D01*
X377619Y476433D01*
X378667D01*
X380238Y476957D01*
X381285Y478004D01*
X381809Y479575D01*
Y480622D01*
X381285Y482194D01*
X380238Y483241D01*
X378667Y483765D01*
X377619D01*
X376572Y483241D01*
X375524Y482194D01*
X375001Y480622D01*
Y479575D01*
X375524Y478004D01*
X376572Y476957D01*
X377619Y476433D01*
X378667D02*
X379714Y476957D01*
X380761Y478004D01*
X381285Y479575D01*
Y480622D01*
X380761Y482194D01*
X379714Y483241D01*
X378667Y483765D01*
X237216Y468713D02*
Y457716D01*
X237740Y468713D02*
Y457716D01*
X234074Y468713D02*
X233550Y465571D01*
Y468713D01*
X241405D01*
Y465571D01*
X240882Y468713D01*
X235645Y457716D02*
X239311D01*
X243500Y461905D02*
X249785D01*
Y462953D01*
X249261Y464000D01*
X248737Y464524D01*
X247690Y465048D01*
X246119D01*
X244548Y464524D01*
X243500Y463476D01*
X242976Y461905D01*
Y460858D01*
X243500Y459287D01*
X244548Y458240D01*
X246119Y457716D01*
X247166D01*
X248737Y458240D01*
X249785Y459287D01*
X249261Y461905D02*
Y463476D01*
X248737Y464524D01*
X246119Y465048D02*
X245071Y464524D01*
X244024Y463476D01*
X243500Y461905D01*
Y460858D01*
X244024Y459287D01*
X245071Y458240D01*
X246119Y457716D01*
X253032Y465048D02*
Y457716D01*
X253555Y465048D02*
Y457716D01*
Y463476D02*
X254603Y464524D01*
X256174Y465048D01*
X257221D01*
X258792Y464524D01*
X259316Y463476D01*
Y457716D01*
X257221Y465048D02*
X258269Y464524D01*
X258792Y463476D01*
Y457716D01*
X259316Y463476D02*
X260363Y464524D01*
X261934Y465048D01*
X262982D01*
X264553Y464524D01*
X265077Y463476D01*
Y457716D01*
X262982Y465048D02*
X264029Y464524D01*
X264553Y463476D01*
Y457716D01*
X251460Y465048D02*
X253555D01*
X251460Y457716D02*
X255126D01*
X257221D02*
X260887D01*
X262982D02*
X266648D01*
X269057Y465048D02*
Y454050D01*
X269580Y465048D02*
Y454050D01*
Y463476D02*
X270628Y464524D01*
X271675Y465048D01*
X272722D01*
X274294Y464524D01*
X275341Y463476D01*
X275865Y461905D01*
Y460858D01*
X275341Y459287D01*
X274294Y458240D01*
X272722Y457716D01*
X271675D01*
X270628Y458240D01*
X269580Y459287D01*
X272722Y465048D02*
X273770Y464524D01*
X274817Y463476D01*
X275341Y461905D01*
Y460858D01*
X274817Y459287D01*
X273770Y458240D01*
X272722Y457716D01*
X267486Y465048D02*
X269580D01*
X267486Y454050D02*
X271152D01*
X277907Y461905D02*
X284191D01*
Y462953D01*
X283668Y464000D01*
X283144Y464524D01*
X282097Y465048D01*
X280526D01*
X278955Y464524D01*
X277907Y463476D01*
X277383Y461905D01*
Y460858D01*
X277907Y459287D01*
X278955Y458240D01*
X280526Y457716D01*
X281573D01*
X283144Y458240D01*
X284191Y459287D01*
X283668Y461905D02*
Y463476D01*
X283144Y464524D01*
X280526Y465048D02*
X279478Y464524D01*
X278431Y463476D01*
X277907Y461905D01*
Y460858D01*
X278431Y459287D01*
X279478Y458240D01*
X280526Y457716D01*
X287438Y465048D02*
Y457716D01*
X287962Y465048D02*
Y457716D01*
Y461905D02*
X288486Y463476D01*
X289533Y464524D01*
X290581Y465048D01*
X292152D01*
X292675Y464524D01*
Y464000D01*
X292152Y463476D01*
X291628Y464000D01*
X292152Y464524D01*
X285867Y465048D02*
X287962D01*
X285867Y457716D02*
X289533D01*
X295399Y464000D02*
Y463476D01*
X294875D01*
Y464000D01*
X295399Y464524D01*
X296446Y465048D01*
X298541D01*
X299588Y464524D01*
X300112Y464000D01*
X300636Y462953D01*
Y459287D01*
X301159Y458240D01*
X301683Y457716D01*
X300112Y464000D02*
Y459287D01*
X300636Y458240D01*
X301683Y457716D01*
X302207D01*
X300112Y462953D02*
X299588Y462429D01*
X296446Y461905D01*
X294875Y461382D01*
X294351Y460334D01*
Y459287D01*
X294875Y458240D01*
X296446Y457716D01*
X298017D01*
X299065Y458240D01*
X300112Y459287D01*
X296446Y461905D02*
X295399Y461382D01*
X294875Y460334D01*
Y459287D01*
X295399Y458240D01*
X296446Y457716D01*
X306920D02*
X306396Y458240D01*
X305873Y459811D01*
Y468713D01*
X305349D01*
Y459811D01*
X305873Y458240D01*
X306920Y457716D01*
X307967D01*
X309015Y458240D01*
X309538Y459287D01*
X303778Y465048D02*
X307967D01*
X312890D02*
Y459287D01*
X313414Y458240D01*
X314985Y457716D01*
X316032D01*
X317603Y458240D01*
X318651Y459287D01*
X313414Y465048D02*
Y459287D01*
X313937Y458240D01*
X314985Y457716D01*
X318651Y465048D02*
Y457716D01*
X319174Y465048D02*
Y457716D01*
X311319Y465048D02*
X313414D01*
X317080D02*
X319174D01*
X318651Y457716D02*
X320746D01*
X323731Y465048D02*
Y457716D01*
X324254Y465048D02*
Y457716D01*
Y461905D02*
X324778Y463476D01*
X325826Y464524D01*
X326873Y465048D01*
X328444D01*
X328968Y464524D01*
Y464000D01*
X328444Y463476D01*
X327920Y464000D01*
X328444Y464524D01*
X322160Y465048D02*
X324254D01*
X322160Y457716D02*
X325826D01*
X331167Y461905D02*
X337452D01*
Y462953D01*
X336928Y464000D01*
X336404Y464524D01*
X335357Y465048D01*
X333786D01*
X332215Y464524D01*
X331167Y463476D01*
X330644Y461905D01*
Y460858D01*
X331167Y459287D01*
X332215Y458240D01*
X333786Y457716D01*
X334833D01*
X336404Y458240D01*
X337452Y459287D01*
X336928Y461905D02*
Y463476D01*
X336404Y464524D01*
X333786Y465048D02*
X332738Y464524D01*
X331691Y463476D01*
X331167Y461905D01*
Y460858D01*
X331691Y459287D01*
X332738Y458240D01*
X333786Y457716D01*
X355833Y467142D02*
X356357Y468713D01*
Y465571D01*
X355833Y467142D01*
X354786Y468190D01*
X353215Y468713D01*
X351644D01*
X350073Y468190D01*
X349025Y467142D01*
Y466095D01*
X349549Y465048D01*
X350073Y464524D01*
X351120Y464000D01*
X354262Y462953D01*
X355310Y462429D01*
X356357Y461382D01*
X349025Y466095D02*
X350073Y465048D01*
X351120Y464524D01*
X354262Y463476D01*
X355310Y462953D01*
X355833Y462429D01*
X356357Y461382D01*
Y459287D01*
X355310Y458240D01*
X353739Y457716D01*
X352167D01*
X350596Y458240D01*
X349549Y459287D01*
X349025Y460858D01*
Y457716D01*
X349549Y459287D01*
X359552Y468713D02*
Y457716D01*
X360075Y468713D02*
Y457716D01*
Y463476D02*
X361123Y464524D01*
X362694Y465048D01*
X363741D01*
X365312Y464524D01*
X365836Y463476D01*
Y457716D01*
X363741Y465048D02*
X364789Y464524D01*
X365312Y463476D01*
Y457716D01*
X357980Y468713D02*
X360075D01*
X357980Y457716D02*
X361646D01*
X363741D02*
X367407D01*
X370392Y468713D02*
X369868Y468190D01*
X370392Y467666D01*
X370916Y468190D01*
X370392Y468713D01*
Y465048D02*
Y457716D01*
X370916Y465048D02*
Y457716D01*
X368821Y465048D02*
X370916D01*
X368821Y457716D02*
X372487D01*
X375001Y461905D02*
X381285D01*
Y462953D01*
X380761Y464000D01*
X380238Y464524D01*
X379190Y465048D01*
X377619D01*
X376048Y464524D01*
X375001Y463476D01*
X374477Y461905D01*
Y460858D01*
X375001Y459287D01*
X376048Y458240D01*
X377619Y457716D01*
X378667D01*
X380238Y458240D01*
X381285Y459287D01*
X380761Y461905D02*
Y463476D01*
X380238Y464524D01*
X377619Y465048D02*
X376572Y464524D01*
X375524Y463476D01*
X375001Y461905D01*
Y460858D01*
X375524Y459287D01*
X376572Y458240D01*
X377619Y457716D01*
X384532Y468713D02*
Y457716D01*
X385056Y468713D02*
Y457716D01*
X382961Y468713D02*
X385056D01*
X382961Y457716D02*
X386627D01*
X394901Y468713D02*
Y457716D01*
X395425Y468713D02*
Y457716D01*
X394901Y463476D02*
X393854Y464524D01*
X392806Y465048D01*
X391759D01*
X390188Y464524D01*
X389141Y463476D01*
X388617Y461905D01*
Y460858D01*
X389141Y459287D01*
X390188Y458240D01*
X391759Y457716D01*
X392806D01*
X393854Y458240D01*
X394901Y459287D01*
X391759Y465048D02*
X390712Y464524D01*
X389664Y463476D01*
X389141Y461905D01*
Y460858D01*
X389664Y459287D01*
X390712Y458240D01*
X391759Y457716D01*
X393330Y468713D02*
X395425D01*
X394901Y457716D02*
X396996D01*
D15*
X235243Y444118D02*
Y436120D01*
X235623Y444118D02*
X237909Y437263D01*
X235243Y444118D02*
X237909Y436120D01*
X240575Y444118D02*
X237909Y436120D01*
X240575Y444118D02*
Y436120D01*
X240956Y444118D02*
Y436120D01*
X234100Y444118D02*
X235623D01*
X240575D02*
X242098D01*
X234100Y436120D02*
X236385D01*
X239432D02*
X242098D01*
X243774Y440691D02*
Y440310D01*
X243393D01*
Y440691D01*
X243774Y441072D01*
X244536Y441452D01*
X246059D01*
X246821Y441072D01*
X247202Y440691D01*
X247583Y439929D01*
Y437263D01*
X247964Y436501D01*
X248345Y436120D01*
X247202Y440691D02*
Y437263D01*
X247583Y436501D01*
X248345Y436120D01*
X248725D01*
X247202Y439929D02*
X246821Y439548D01*
X244536Y439167D01*
X243393Y438786D01*
X243012Y438024D01*
Y437263D01*
X243393Y436501D01*
X244536Y436120D01*
X245679D01*
X246440Y436501D01*
X247202Y437263D01*
X244536Y439167D02*
X243774Y438786D01*
X243393Y438024D01*
Y437263D01*
X243774Y436501D01*
X244536Y436120D01*
X254438Y444118D02*
Y436120D01*
X254819Y444118D02*
Y436120D01*
X254438Y440310D02*
X253677Y441072D01*
X252915Y441452D01*
X252153D01*
X251011Y441072D01*
X250249Y440310D01*
X249868Y439167D01*
Y438405D01*
X250249Y437263D01*
X251011Y436501D01*
X252153Y436120D01*
X252915D01*
X253677Y436501D01*
X254438Y437263D01*
X252153Y441452D02*
X251392Y441072D01*
X250630Y440310D01*
X250249Y439167D01*
Y438405D01*
X250630Y437263D01*
X251392Y436501D01*
X252153Y436120D01*
X253296Y444118D02*
X254819D01*
X254438Y436120D02*
X255962D01*
X257447Y439167D02*
X262018D01*
Y439929D01*
X261637Y440691D01*
X261256Y441072D01*
X260494Y441452D01*
X259352D01*
X258209Y441072D01*
X257447Y440310D01*
X257066Y439167D01*
Y438405D01*
X257447Y437263D01*
X258209Y436501D01*
X259352Y436120D01*
X260114D01*
X261256Y436501D01*
X262018Y437263D01*
X261637Y439167D02*
Y440310D01*
X261256Y441072D01*
X259352Y441452D02*
X258590Y441072D01*
X257828Y440310D01*
X257447Y439167D01*
Y438405D01*
X257828Y437263D01*
X258590Y436501D01*
X259352Y436120D01*
X271578Y444118D02*
Y436120D01*
X271959Y444118D02*
Y436120D01*
Y440310D02*
X272720Y441072D01*
X273482Y441452D01*
X274244D01*
X275386Y441072D01*
X276148Y440310D01*
X276529Y439167D01*
Y438405D01*
X276148Y437263D01*
X275386Y436501D01*
X274244Y436120D01*
X273482D01*
X272720Y436501D01*
X271959Y437263D01*
X274244Y441452D02*
X275005Y441072D01*
X275767Y440310D01*
X276148Y439167D01*
Y438405D01*
X275767Y437263D01*
X275005Y436501D01*
X274244Y436120D01*
X270435Y444118D02*
X271959D01*
X278395Y441452D02*
X280681Y436120D01*
X278776Y441452D02*
X280681Y436882D01*
X282966Y441452D02*
X280681Y436120D01*
X279919Y434597D01*
X279157Y433835D01*
X278395Y433454D01*
X278014D01*
X277634Y433835D01*
X278014Y434216D01*
X278395Y433835D01*
X277634Y441452D02*
X279919D01*
X281442D02*
X283727D01*
X285213D02*
X284832Y441072D01*
X285213Y440691D01*
X285594Y441072D01*
X285213Y441452D01*
Y436882D02*
X284832Y436501D01*
X285213Y436120D01*
X285594Y436501D01*
X285213Y436882D01*
X235243Y428014D02*
Y420016D01*
X235623Y428014D02*
Y420016D01*
X234100Y428014D02*
X238670D01*
X239813Y427634D01*
X240194Y427253D01*
X240575Y426491D01*
Y425348D01*
X240194Y424587D01*
X239813Y424206D01*
X238670Y423825D01*
X235623D01*
X238670Y428014D02*
X239432Y427634D01*
X239813Y427253D01*
X240194Y426491D01*
Y425348D01*
X239813Y424587D01*
X239432Y424206D01*
X238670Y423825D01*
X234100Y420016D02*
X236766D01*
X242403Y424587D02*
Y424206D01*
X242022D01*
Y424587D01*
X242403Y424967D01*
X243165Y425348D01*
X244688D01*
X245450Y424967D01*
X245831Y424587D01*
X246212Y423825D01*
Y421159D01*
X246593Y420397D01*
X246973Y420016D01*
X245831Y424587D02*
Y421159D01*
X246212Y420397D01*
X246973Y420016D01*
X247354D01*
X245831Y423825D02*
X245450Y423444D01*
X243165Y423063D01*
X242022Y422682D01*
X241641Y421921D01*
Y421159D01*
X242022Y420397D01*
X243165Y420016D01*
X244307D01*
X245069Y420397D01*
X245831Y421159D01*
X243165Y423063D02*
X242403Y422682D01*
X242022Y421921D01*
Y421159D01*
X242403Y420397D01*
X243165Y420016D01*
X250782D02*
X250401Y420397D01*
X250020Y421540D01*
Y428014D01*
X249640D01*
Y421540D01*
X250020Y420397D01*
X250782Y420016D01*
X251544D01*
X252306Y420397D01*
X252687Y421159D01*
X248497Y425348D02*
X251544D01*
X255124D02*
Y420016D01*
X255505Y425348D02*
Y420016D01*
Y423063D02*
X255886Y424206D01*
X256648Y424967D01*
X257409Y425348D01*
X258552D01*
X258933Y424967D01*
Y424587D01*
X258552Y424206D01*
X258171Y424587D01*
X258552Y424967D01*
X253981Y425348D02*
X255505D01*
X253981Y420016D02*
X256648D01*
X260913Y425348D02*
X263199Y420016D01*
X261294Y425348D02*
X263199Y420778D01*
X265484Y425348D02*
X263199Y420016D01*
X262437Y418493D01*
X261675Y417731D01*
X260913Y417350D01*
X260532D01*
X260152Y417731D01*
X260532Y418112D01*
X260913Y417731D01*
X260152Y425348D02*
X262437D01*
X263960D02*
X266245D01*
X268493Y428014D02*
Y420016D01*
X268874Y428014D02*
Y420016D01*
X272682Y425348D02*
X268874Y421540D01*
X270778Y423063D02*
X273063Y420016D01*
X270397Y423063D02*
X272682Y420016D01*
X267350Y428014D02*
X268874D01*
X271540Y425348D02*
X273825D01*
X267350Y420016D02*
X270016D01*
X271540D02*
X273825D01*
X287041Y428014D02*
X282090Y420016D01*
X287422Y428014D02*
X282471Y420016D01*
Y428014D02*
X282090Y425729D01*
Y428014D01*
X287422D01*
X282090Y420016D02*
X287422D01*
Y422301D01*
X287041Y420016D01*
X289364Y425348D02*
X291650Y420016D01*
X289745Y425348D02*
X291650Y420778D01*
X293935Y425348D02*
X291650Y420016D01*
X290888Y418493D01*
X290126Y417731D01*
X289364Y417350D01*
X288983D01*
X288603Y417731D01*
X288983Y418112D01*
X289364Y417731D01*
X288603Y425348D02*
X290888D01*
X292411D02*
X294697D01*
X296944D02*
Y420016D01*
X297325Y425348D02*
Y420016D01*
Y424206D02*
X298086Y424967D01*
X299229Y425348D01*
X299991D01*
X301133Y424967D01*
X301514Y424206D01*
Y420016D01*
X299991Y425348D02*
X300753Y424967D01*
X301133Y424206D01*
Y420016D01*
X301514Y424206D02*
X302276Y424967D01*
X303419Y425348D01*
X304180D01*
X305323Y424967D01*
X305704Y424206D01*
Y420016D01*
X304180Y425348D02*
X304942Y424967D01*
X305323Y424206D01*
Y420016D01*
X295801Y425348D02*
X297325D01*
X295801Y420016D02*
X298467D01*
X299991D02*
X302657D01*
X304180D02*
X306846D01*
X307837Y423063D02*
X312407D01*
Y423825D01*
X312026Y424587D01*
X311645Y424967D01*
X310884Y425348D01*
X309741D01*
X308598Y424967D01*
X307837Y424206D01*
X307456Y423063D01*
Y422301D01*
X307837Y421159D01*
X308598Y420397D01*
X309741Y420016D01*
X310503D01*
X311645Y420397D01*
X312407Y421159D01*
X312026Y423063D02*
Y424206D01*
X311645Y424967D01*
X309741Y425348D02*
X308979Y424967D01*
X308218Y424206D01*
X307837Y423063D01*
Y422301D01*
X308218Y421159D01*
X308979Y420397D01*
X309741Y420016D01*
X314769Y428014D02*
Y420016D01*
X315149Y428014D02*
Y420016D01*
X313626Y428014D02*
X315149D01*
X313626Y420016D02*
X316292D01*
X318882Y428014D02*
Y420016D01*
X319263Y428014D02*
Y420016D01*
X323072Y425348D02*
X319263Y421540D01*
X321167Y423063D02*
X323452Y420016D01*
X320786Y423063D02*
X323072Y420016D01*
X317739Y428014D02*
X319263D01*
X321929Y425348D02*
X324214D01*
X317739Y420016D02*
X320405D01*
X321929D02*
X324214D01*
X326042Y424587D02*
Y424206D01*
X325662D01*
Y424587D01*
X326042Y424967D01*
X326804Y425348D01*
X328327D01*
X329089Y424967D01*
X329470Y424587D01*
X329851Y423825D01*
Y421159D01*
X330232Y420397D01*
X330613Y420016D01*
X329470Y424587D02*
Y421159D01*
X329851Y420397D01*
X330613Y420016D01*
X330994D01*
X329470Y423825D02*
X329089Y423444D01*
X326804Y423063D01*
X325662Y422682D01*
X325281Y421921D01*
Y421159D01*
X325662Y420397D01*
X326804Y420016D01*
X327947D01*
X328708Y420397D01*
X329470Y421159D01*
X326804Y423063D02*
X326042Y422682D01*
X325662Y421921D01*
Y421159D01*
X326042Y420397D01*
X326804Y420016D01*
D16*
X272335Y400498D02*
Y390502D01*
X277334D01*
X279000Y392168D01*
Y398832D01*
X277334Y400498D01*
X272335D01*
X282332Y390502D02*
X285665D01*
X283998D01*
Y400498D01*
X282332Y398832D01*
X597417Y285448D02*
X596584Y286280D01*
X594918D01*
X594085Y285448D01*
Y282115D01*
X594918Y281282D01*
X596584D01*
X597417Y282115D01*
X602416Y281282D02*
X599083D01*
X602416Y284614D01*
Y285448D01*
X601582Y286280D01*
X599916D01*
X599083Y285448D01*
X576026Y285463D02*
X575192Y286296D01*
X573526D01*
X572693Y285463D01*
Y282131D01*
X573526Y281298D01*
X575192D01*
X576026Y282131D01*
X577692Y285463D02*
X578525Y286296D01*
X580191D01*
X581024Y285463D01*
Y284630D01*
X580191Y283797D01*
X579358D01*
X580191D01*
X581024Y282964D01*
Y282131D01*
X580191Y281298D01*
X578525D01*
X577692Y282131D01*
X550417Y281666D02*
X549584Y282499D01*
X547918D01*
X547085Y281666D01*
Y278334D01*
X547918Y277501D01*
X549584D01*
X550417Y278334D01*
X555415Y282499D02*
X552083D01*
Y280000D01*
X553749Y280833D01*
X554582D01*
X555415Y280000D01*
Y278334D01*
X554582Y277501D01*
X552916D01*
X552083Y278334D01*
X568332Y210751D02*
X571665D01*
Y213250D01*
X569998D01*
X571665D01*
Y215749D01*
X566666Y210751D02*
Y215749D01*
X564167D01*
X563334Y214916D01*
Y214083D01*
X564167Y213250D01*
X566666D01*
X564167D01*
X563334Y212417D01*
Y211584D01*
X564167Y210751D01*
X566666D01*
X558335Y215749D02*
X561668D01*
X558335Y212417D01*
Y211584D01*
X559169Y210751D01*
X560835D01*
X561668Y211584D01*
X514584Y247584D02*
X513751Y246751D01*
Y245085D01*
X514584Y244252D01*
X517916D01*
X518749Y245085D01*
Y246751D01*
X517916Y247584D01*
X518749Y249250D02*
Y250917D01*
Y250084D01*
X513751D01*
X514584Y249250D01*
X518749Y256748D02*
Y253416D01*
X515417Y256748D01*
X514584D01*
X513751Y255915D01*
Y254249D01*
X514584Y253416D01*
X425632Y455961D02*
Y450882D01*
Y453422D01*
X438328D01*
X440868Y450882D01*
Y448343D01*
X438328Y445804D01*
X428172Y461039D02*
X425632Y463578D01*
Y468657D01*
X428172Y471196D01*
X430711D01*
X433250Y468657D01*
X435789Y471196D01*
X438328D01*
X440868Y468657D01*
Y463578D01*
X438328Y461039D01*
X435789D01*
X433250Y463578D01*
X430711Y461039D01*
X428172D01*
X433250Y463578D02*
Y468657D01*
X91653Y228433D02*
X89987Y226767D01*
Y223435D01*
X91653Y221769D01*
X98318D01*
X99984Y223435D01*
Y226767D01*
X98318Y228433D01*
X99984Y231765D02*
Y235098D01*
Y233432D01*
X89987D01*
X91653Y231765D01*
Y240096D02*
X89987Y241762D01*
Y245095D01*
X91653Y246761D01*
X98318D01*
X99984Y245095D01*
Y241762D01*
X98318Y240096D01*
X91653D01*
X342669Y112002D02*
Y121998D01*
X347668D01*
X349334Y120332D01*
Y117000D01*
X347668Y115334D01*
X342669D01*
X346002D02*
X349334Y112002D01*
X359331Y121998D02*
X352666D01*
Y117000D01*
X355998Y118666D01*
X357664D01*
X359331Y117000D01*
Y113668D01*
X357664Y112002D01*
X354332D01*
X352666Y113668D01*
X61672Y149093D02*
X59132Y146554D01*
Y141476D01*
X61672Y138937D01*
X64211D01*
X66750Y141476D01*
Y146554D01*
X69289Y149093D01*
X71828D01*
X74367Y146554D01*
Y141476D01*
X71828Y138937D01*
X59132Y154172D02*
X74367D01*
X69289Y159250D01*
X74367Y164328D01*
X59132D01*
X74367Y179563D02*
Y169407D01*
X64211Y179563D01*
X61672D01*
X59132Y177024D01*
Y171946D01*
X61672Y169407D01*
X132533Y484332D02*
X130866Y485998D01*
X127534D01*
X125868Y484332D01*
Y482666D01*
X127534Y481000D01*
X130866D01*
X132533Y479334D01*
Y477668D01*
X130866Y476001D01*
X127534D01*
X125868Y477668D01*
X135865Y485998D02*
Y476001D01*
X139197Y479334D01*
X142529Y476001D01*
Y485998D01*
X145862Y476001D02*
X149194D01*
X147528D01*
Y485998D01*
X145862Y484332D01*
X424248Y322081D02*
X415918D01*
X414252Y320415D01*
Y317082D01*
X415918Y315416D01*
X424248D01*
X414252Y307085D02*
X424248D01*
X419250Y312084D01*
Y305419D01*
X441081Y114002D02*
Y122332D01*
X439414Y123998D01*
X436082D01*
X434416Y122332D01*
Y114002D01*
X431084Y115668D02*
X429418Y114002D01*
X426086D01*
X424419Y115668D01*
Y117334D01*
X426086Y119000D01*
X427752D01*
X426086D01*
X424419Y120666D01*
Y122332D01*
X426086Y123998D01*
X429418D01*
X431084Y122332D01*
X232882Y235304D02*
X245578D01*
X248118Y237843D01*
Y242922D01*
X245578Y245461D01*
X232882D01*
X248118Y260696D02*
Y250539D01*
X237961Y260696D01*
X235422D01*
X232882Y258157D01*
Y253078D01*
X235422Y250539D01*
X616368Y372907D02*
X603672D01*
X601133Y370368D01*
Y365289D01*
X603672Y362750D01*
X616368D01*
X601133Y357672D02*
Y352593D01*
Y355132D01*
X616368D01*
X613828Y357672D01*
X469669Y171252D02*
Y181248D01*
X474668D01*
X476334Y179582D01*
Y176250D01*
X474668Y174584D01*
X469669D01*
X473002D02*
X476334Y171252D01*
X479666Y181248D02*
X486331D01*
Y179582D01*
X479666Y172918D01*
Y171252D01*
X341169Y153752D02*
Y163748D01*
X346168D01*
X347834Y162082D01*
Y158750D01*
X346168Y157084D01*
X341169D01*
X344502D02*
X347834Y153752D01*
X357831Y163748D02*
X354498Y162082D01*
X351166Y158750D01*
Y155418D01*
X352832Y153752D01*
X356165D01*
X357831Y155418D01*
Y157084D01*
X356165Y158750D01*
X351166D01*
X297121Y389252D02*
Y399248D01*
X302119D01*
X303785Y397582D01*
Y394250D01*
X302119Y392584D01*
X297121D01*
X300453D02*
X303785Y389252D01*
X312116D02*
Y399248D01*
X307118Y394250D01*
X313782D01*
X427919Y422252D02*
Y432248D01*
X432918D01*
X434584Y430582D01*
Y427250D01*
X432918Y425584D01*
X427919D01*
X431252D02*
X434584Y422252D01*
X437916Y430582D02*
X439582Y432248D01*
X442915D01*
X444581Y430582D01*
Y428916D01*
X442915Y427250D01*
X441248D01*
X442915D01*
X444581Y425584D01*
Y423918D01*
X442915Y422252D01*
X439582D01*
X437916Y423918D01*
X202419Y185252D02*
Y195248D01*
X207418D01*
X209084Y193582D01*
Y190250D01*
X207418Y188584D01*
X202419D01*
X205752D02*
X209084Y185252D01*
X219081D02*
X212416D01*
X219081Y191916D01*
Y193582D01*
X217414Y195248D01*
X214082D01*
X212416Y193582D01*
X431836Y378502D02*
Y388498D01*
X436834D01*
X438500Y386832D01*
Y383500D01*
X436834Y381834D01*
X431836D01*
X435168D02*
X438500Y378502D01*
X441832D02*
X445164D01*
X443498D01*
Y388498D01*
X441832Y386832D01*
X36078Y325117D02*
X31000D01*
X33539D01*
Y312422D01*
X31000Y309883D01*
X28461D01*
X25922Y312422D01*
X60045Y109189D02*
Y114268D01*
Y111728D01*
X47349D01*
X44810Y114268D01*
Y116807D01*
X47349Y119346D01*
X60045Y104111D02*
Y93954D01*
X57506D01*
X47349Y104111D01*
X44810D01*
X57368Y420789D02*
Y425868D01*
Y423328D01*
X44672D01*
X42133Y425868D01*
Y428407D01*
X44672Y430946D01*
X57368Y405554D02*
X54828Y410633D01*
X49750Y415711D01*
X44672D01*
X42133Y413172D01*
Y408093D01*
X44672Y405554D01*
X47211D01*
X49750Y408093D01*
Y415711D01*
X141502Y298498D02*
X134837D01*
Y293500D01*
X138169D01*
X134837D01*
Y288502D01*
X144834Y298498D02*
Y288502D01*
X149832D01*
X151498Y290168D01*
Y291834D01*
X149832Y293500D01*
X144834D01*
X149832D01*
X151498Y295166D01*
Y296832D01*
X149832Y298498D01*
X144834D01*
X154831Y288502D02*
X158163D01*
X156497D01*
Y298498D01*
X154831Y296832D01*
X308419Y162748D02*
Y152752D01*
X313418D01*
X315084Y154418D01*
Y161082D01*
X313418Y162748D01*
X308419D01*
X318416Y161082D02*
X320082Y162748D01*
X323414D01*
X325081Y161082D01*
Y159416D01*
X323414Y157750D01*
X321748D01*
X323414D01*
X325081Y156084D01*
Y154418D01*
X323414Y152752D01*
X320082D01*
X318416Y154418D01*
X310169Y121748D02*
Y111752D01*
X315168D01*
X316834Y113418D01*
Y120082D01*
X315168Y121748D01*
X310169D01*
X326831Y111752D02*
X320166D01*
X326831Y118416D01*
Y120082D01*
X325164Y121748D01*
X321832D01*
X320166Y120082D01*
X116081Y309168D02*
X117748Y307502D01*
X121080D01*
X122746Y309168D01*
Y315832D01*
X121080Y317498D01*
X117748D01*
X116081Y315832D01*
X112749Y317498D02*
X109417D01*
X111083D01*
Y307502D01*
X112749Y309168D01*
X104418D02*
X102752Y307502D01*
X99420D01*
X97754Y309168D01*
Y310834D01*
X99420Y312500D01*
X101086D01*
X99420D01*
X97754Y314166D01*
Y315832D01*
X99420Y317498D01*
X102752D01*
X104418Y315832D01*
X199582Y242415D02*
X201248Y244081D01*
Y247414D01*
X199582Y249080D01*
X192918D01*
X191252Y247414D01*
Y244081D01*
X192918Y242415D01*
X191252Y239083D02*
Y235751D01*
Y237417D01*
X201248D01*
X199582Y239083D01*
X191252Y230752D02*
Y227420D01*
Y229086D01*
X201248D01*
X199582Y230752D01*
X350584Y272082D02*
X348918Y273748D01*
X345586D01*
X343919Y272082D01*
Y265418D01*
X345586Y263752D01*
X348918D01*
X350584Y265418D01*
X353916D02*
X355582Y263752D01*
X358914D01*
X360581Y265418D01*
Y272082D01*
X358914Y273748D01*
X355582D01*
X353916Y272082D01*
Y270416D01*
X355582Y268750D01*
X360581D01*
X441334Y209582D02*
X439668Y211248D01*
X436335D01*
X434669Y209582D01*
Y202918D01*
X436335Y201252D01*
X439668D01*
X441334Y202918D01*
X444666Y209582D02*
X446332Y211248D01*
X449664D01*
X451331Y209582D01*
Y207916D01*
X449664Y206250D01*
X451331Y204584D01*
Y202918D01*
X449664Y201252D01*
X446332D01*
X444666Y202918D01*
Y204584D01*
X446332Y206250D01*
X444666Y207916D01*
Y209582D01*
X446332Y206250D02*
X449664D01*
X331832Y320416D02*
X333498Y322082D01*
Y325415D01*
X331832Y327081D01*
X325168D01*
X323502Y325415D01*
Y322082D01*
X325168Y320416D01*
X333498Y317084D02*
Y310419D01*
X331832D01*
X325168Y317084D01*
X323502D01*
X238168Y310084D02*
X236502Y308418D01*
Y305086D01*
X238168Y303419D01*
X244832D01*
X246498Y305086D01*
Y308418D01*
X244832Y310084D01*
X236502Y320081D02*
X238168Y316748D01*
X241500Y313416D01*
X244832D01*
X246498Y315082D01*
Y318414D01*
X244832Y320081D01*
X243166D01*
X241500Y318414D01*
Y313416D01*
X463334Y383082D02*
X461668Y384748D01*
X458335D01*
X456669Y383082D01*
Y376418D01*
X458335Y374752D01*
X461668D01*
X463334Y376418D01*
X471665Y374752D02*
Y384748D01*
X466666Y379750D01*
X473331D01*
X232582Y81250D02*
X234248Y82916D01*
Y86248D01*
X232582Y87914D01*
X225918D01*
X224252Y86248D01*
Y82916D01*
X225918Y81250D01*
X224252Y77918D02*
Y74585D01*
Y76252D01*
X234248D01*
X232582Y77918D01*
X505461Y59688D02*
X500382D01*
X502922D01*
Y46992D01*
X500382Y44453D01*
X497843D01*
X495304Y46992D01*
X518157Y44453D02*
Y59688D01*
X510539Y52070D01*
X520696D01*
X276861Y59688D02*
X271782D01*
X274322D01*
Y46992D01*
X271782Y44453D01*
X269243D01*
X266704Y46992D01*
X281939Y57148D02*
X284478Y59688D01*
X289557D01*
X292096Y57148D01*
Y54609D01*
X289557Y52070D01*
X287017D01*
X289557D01*
X292096Y49531D01*
Y46992D01*
X289557Y44453D01*
X284478D01*
X281939Y46992D01*
X448584Y491498D02*
X445252D01*
X446918D01*
Y483168D01*
X445252Y481502D01*
X443586D01*
X441919Y483168D01*
X458581Y481502D02*
X451916D01*
X458581Y488166D01*
Y489832D01*
X456914Y491498D01*
X453582D01*
X451916Y489832D01*
X206500Y492998D02*
X201502D01*
X204001D01*
Y480502D01*
X201502Y478002D01*
X199002D01*
X196503Y480502D01*
X211498Y478002D02*
X216497D01*
X213998D01*
Y492998D01*
X211498Y490498D01*
M02*
