G04*
G04 #@! TF.GenerationSoftware,Altium Limited,Altium Designer,23.10.1 (27)*
G04*
G04 Layer_Color=255*
%FSLAX44Y44*%
%MOMM*%
G71*
G04*
G04 #@! TF.SameCoordinates,DC49990F-6EA9-493E-B2B0-75892BC7290B*
G04*
G04*
G04 #@! TF.FilePolarity,Positive*
G04*
G01*
G75*
%ADD17R,0.8000X0.8000*%
%ADD18R,0.6153X0.5725*%
%ADD19R,1.1500X1.1500*%
%ADD20R,1.2500X1.0000*%
%ADD21R,1.3061X1.0582*%
%ADD22R,1.3562X1.1046*%
%ADD23R,2.0000X3.0000*%
%ADD24R,0.9500X0.8000*%
%ADD25R,0.7000X0.5000*%
%ADD26R,2.6000X1.0000*%
%ADD27R,1.0000X1.2500*%
%ADD28O,0.3000X2.1000*%
%ADD29O,2.1000X0.3000*%
%ADD30R,0.8000X0.9500*%
%ADD31R,0.3100X0.6600*%
%ADD32R,1.3562X1.0546*%
%ADD33R,0.8721X1.0043*%
G04:AMPARAMS|DCode=34|XSize=1.0043mm|YSize=0.8721mm|CornerRadius=0.4361mm|HoleSize=0mm|Usage=FLASHONLY|Rotation=270.000|XOffset=0mm|YOffset=0mm|HoleType=Round|Shape=RoundedRectangle|*
%AMROUNDEDRECTD34*
21,1,1.0043,0.0000,0,0,270.0*
21,1,0.1322,0.8721,0,0,270.0*
1,1,0.8721,0.0000,-0.0661*
1,1,0.8721,0.0000,0.0661*
1,1,0.8721,0.0000,0.0661*
1,1,0.8721,0.0000,-0.0661*
%
%ADD34ROUNDEDRECTD34*%
G04:AMPARAMS|DCode=35|XSize=1.0043mm|YSize=3.1821mm|CornerRadius=0.4369mm|HoleSize=0mm|Usage=FLASHONLY|Rotation=270.000|XOffset=0mm|YOffset=0mm|HoleType=Round|Shape=RoundedRectangle|*
%AMROUNDEDRECTD35*
21,1,1.0043,2.3084,0,0,270.0*
21,1,0.1306,3.1821,0,0,270.0*
1,1,0.8737,-1.1542,-0.0653*
1,1,0.8737,-1.1542,0.0653*
1,1,0.8737,1.1542,0.0653*
1,1,0.8737,1.1542,-0.0653*
%
%ADD35ROUNDEDRECTD35*%
%ADD36R,2.0000X1.7500*%
%ADD37R,1.3500X0.4000*%
%ADD38R,1.4562X1.3046*%
%ADD39R,0.5200X0.5200*%
%ADD40R,1.0200X1.9050*%
%ADD41R,0.5500X0.3000*%
%ADD51R,1.5200X1.5200*%
%ADD52C,1.5200*%
%ADD59R,0.1000X0.1000*%
%ADD64C,0.4500*%
%ADD65C,3.1750*%
%ADD66C,1.7000*%
%ADD67R,1.7000X1.7000*%
%ADD68R,1.7000X1.7000*%
D17*
X287750Y379750D02*
D03*
X271250D02*
D03*
X308750Y141500D02*
D03*
X325250D02*
D03*
D18*
X311500Y380250D02*
D03*
X302929D02*
D03*
X353785Y141750D02*
D03*
X345214D02*
D03*
D19*
X362750Y100000D02*
D03*
X339250D02*
D03*
D20*
X597500Y250750D02*
D03*
Y270750D02*
D03*
X577250Y251000D02*
D03*
Y271000D02*
D03*
X557500Y251250D02*
D03*
Y271250D02*
D03*
X211250Y66250D02*
D03*
Y86250D02*
D03*
D21*
X557739Y230000D02*
D03*
X573261D02*
D03*
X138489Y274500D02*
D03*
X154011D02*
D03*
D22*
X534250Y253134D02*
D03*
Y267250D02*
D03*
D23*
X173500Y166000D02*
D03*
X98500D02*
D03*
Y66000D02*
D03*
X173500D02*
D03*
X101500Y365000D02*
D03*
X176500D02*
D03*
Y465000D02*
D03*
X101500D02*
D03*
D24*
X212500Y161750D02*
D03*
Y174250D02*
D03*
D25*
X312500Y99750D02*
D03*
X321500D02*
D03*
D26*
X474500Y133750D02*
D03*
Y160750D02*
D03*
D27*
X423250Y188000D02*
D03*
X443250D02*
D03*
X478000Y348750D02*
D03*
X458000D02*
D03*
X121250Y329750D02*
D03*
X101250D02*
D03*
D28*
X514250Y294250D02*
D03*
X519250D02*
D03*
X524250D02*
D03*
X529250D02*
D03*
X534250D02*
D03*
X539250D02*
D03*
X544250D02*
D03*
X549250D02*
D03*
X554250D02*
D03*
X559250D02*
D03*
X564250D02*
D03*
X569250D02*
D03*
Y376250D02*
D03*
X564250D02*
D03*
X559250D02*
D03*
X554250D02*
D03*
X549250D02*
D03*
X544250D02*
D03*
X539250D02*
D03*
X534250D02*
D03*
X529250D02*
D03*
X524250D02*
D03*
X519250D02*
D03*
X514250D02*
D03*
D29*
X582750Y307750D02*
D03*
Y312750D02*
D03*
Y317750D02*
D03*
Y322750D02*
D03*
Y327750D02*
D03*
Y332750D02*
D03*
Y337750D02*
D03*
Y342750D02*
D03*
Y347750D02*
D03*
Y352750D02*
D03*
Y357750D02*
D03*
Y362750D02*
D03*
X500750D02*
D03*
Y357750D02*
D03*
Y352750D02*
D03*
Y347750D02*
D03*
Y342750D02*
D03*
Y337750D02*
D03*
Y332750D02*
D03*
Y327750D02*
D03*
Y322750D02*
D03*
Y317750D02*
D03*
Y312750D02*
D03*
Y307750D02*
D03*
D30*
X442750Y412000D02*
D03*
X430250D02*
D03*
X444000Y369000D02*
D03*
X431500D02*
D03*
D31*
X399750Y323350D02*
D03*
X394750D02*
D03*
X389750D02*
D03*
Y308650D02*
D03*
X394750D02*
D03*
X399750D02*
D03*
D32*
X306000Y318500D02*
D03*
Y303984D02*
D03*
X262500Y318250D02*
D03*
Y303734D02*
D03*
D33*
X308400Y280450D02*
D03*
D34*
X285500D02*
D03*
X262600D02*
D03*
D35*
X285500Y214550D02*
D03*
D36*
X33020Y256720D02*
D03*
Y279220D02*
D03*
D37*
X59820Y254970D02*
D03*
Y261470D02*
D03*
Y267970D02*
D03*
Y274470D02*
D03*
Y280970D02*
D03*
D38*
X174000Y228692D02*
D03*
Y244808D02*
D03*
X116750Y245308D02*
D03*
Y229192D02*
D03*
D39*
X380750Y287750D02*
D03*
X372750D02*
D03*
D40*
X460600Y441975D02*
D03*
X486000Y474025D02*
D03*
X511400Y441975D02*
D03*
X536800Y474025D02*
D03*
X562200Y441975D02*
D03*
X587600Y474025D02*
D03*
X613000Y441975D02*
D03*
X638400Y474025D02*
D03*
D41*
X424500Y151500D02*
D03*
Y145000D02*
D03*
Y138500D02*
D03*
X442000Y151500D02*
D03*
Y145000D02*
D03*
Y138500D02*
D03*
D51*
X27000Y144750D02*
D03*
X24000Y454800D02*
D03*
D52*
X27000Y119350D02*
D03*
Y93950D02*
D03*
Y68550D02*
D03*
X24000Y429400D02*
D03*
Y404000D02*
D03*
Y378600D02*
D03*
D59*
X41520Y237970D02*
D03*
Y297970D02*
D03*
D64*
X33020Y239720D02*
D03*
Y296220D02*
D03*
D65*
X660400Y355600D02*
D03*
X139700Y25400D02*
D03*
X660400Y76200D02*
D03*
X152400Y508000D02*
D03*
D66*
X457200Y25400D02*
D03*
X431800D02*
D03*
X406400D02*
D03*
X381000D02*
D03*
X355600D02*
D03*
X330200D02*
D03*
X304800D02*
D03*
X508000D02*
D03*
X533400D02*
D03*
X558800D02*
D03*
X584200D02*
D03*
X609600D02*
D03*
X661670Y304800D02*
D03*
X636270Y279400D02*
D03*
X661670D02*
D03*
X636270Y254000D02*
D03*
X661670D02*
D03*
X457200Y508000D02*
D03*
X482600D02*
D03*
X508000D02*
D03*
X533400D02*
D03*
X558800D02*
D03*
X584200D02*
D03*
X609600D02*
D03*
X187960D02*
D03*
X213360D02*
D03*
X238760D02*
D03*
X264160D02*
D03*
X289560D02*
D03*
X314960D02*
D03*
X340360D02*
D03*
X365760D02*
D03*
X391160D02*
D03*
D67*
X279400Y25400D02*
D03*
X635000D02*
D03*
Y508000D02*
D03*
X416560D02*
D03*
D68*
X636270Y304800D02*
D03*
M02*
