G04*
G04 #@! TF.GenerationSoftware,Altium Limited,Altium Designer,23.10.1 (27)*
G04*
G04 Layer_Color=128*
%FSLAX44Y44*%
%MOMM*%
G71*
G04*
G04 #@! TF.SameCoordinates,596B71A0-CA98-4B05-B8CA-452A5214790D*
G04*
G04*
G04 #@! TF.FilePolarity,Positive*
G04*
G01*
G75*
%ADD13C,0.1270*%
D13*
X21900Y144750D02*
X32100D01*
X27000Y139650D02*
Y149850D01*
X21900Y119350D02*
X32100D01*
X27000Y114250D02*
Y124450D01*
X21900Y93950D02*
X32100D01*
X27000Y88850D02*
Y99050D01*
X21900Y68550D02*
X32100D01*
X27000Y63450D02*
Y73650D01*
X18900Y454800D02*
X29100D01*
X24000Y449700D02*
Y459900D01*
X18900Y429400D02*
X29100D01*
X24000Y424300D02*
Y434500D01*
X18900Y404000D02*
X29100D01*
X24000Y398900D02*
Y409100D01*
X18900Y378600D02*
X29100D01*
X24000Y373500D02*
Y383700D01*
X30770Y239720D02*
X35270D01*
X33020Y237470D02*
Y241970D01*
X30770Y296220D02*
X35270D01*
X33020Y293970D02*
Y298470D01*
X644525Y355600D02*
X676275D01*
X660400Y339725D02*
Y371475D01*
X451700Y25400D02*
X462700D01*
X457200Y19900D02*
Y30900D01*
X426300Y25400D02*
X437300D01*
X431800Y19900D02*
Y30900D01*
X400900Y25400D02*
X411900D01*
X406400Y19900D02*
Y30900D01*
X375500Y25400D02*
X386500D01*
X381000Y19900D02*
Y30900D01*
X350100Y25400D02*
X361100D01*
X355600Y19900D02*
Y30900D01*
X324700Y25400D02*
X335700D01*
X330200Y19900D02*
Y30900D01*
X299300Y25400D02*
X310300D01*
X304800Y19900D02*
Y30900D01*
X273900Y25400D02*
X284900D01*
X279400Y19900D02*
Y30900D01*
X502500Y25400D02*
X513500D01*
X508000Y19900D02*
Y30900D01*
X527900Y25400D02*
X538900D01*
X533400Y19900D02*
Y30900D01*
X553300Y25400D02*
X564300D01*
X558800Y19900D02*
Y30900D01*
X578700Y25400D02*
X589700D01*
X584200Y19900D02*
Y30900D01*
X604100Y25400D02*
X615100D01*
X609600Y19900D02*
Y30900D01*
X629500Y25400D02*
X640500D01*
X635000Y19900D02*
Y30900D01*
X630770Y304800D02*
X641770D01*
X636270Y299300D02*
Y310300D01*
X656170Y304800D02*
X667170D01*
X661670Y299300D02*
Y310300D01*
X630770Y279400D02*
X641770D01*
X636270Y273900D02*
Y284900D01*
X656170Y279400D02*
X667170D01*
X661670Y273900D02*
Y284900D01*
X630770Y254000D02*
X641770D01*
X636270Y248500D02*
Y259500D01*
X656170Y254000D02*
X667170D01*
X661670Y248500D02*
Y259500D01*
X451700Y508000D02*
X462700D01*
X457200Y502500D02*
Y513500D01*
X477100Y508000D02*
X488100D01*
X482600Y502500D02*
Y513500D01*
X502500Y508000D02*
X513500D01*
X508000Y502500D02*
Y513500D01*
X527900Y508000D02*
X538900D01*
X533400Y502500D02*
Y513500D01*
X553300Y508000D02*
X564300D01*
X558800Y502500D02*
Y513500D01*
X578700Y508000D02*
X589700D01*
X584200Y502500D02*
Y513500D01*
X604100Y508000D02*
X615100D01*
X609600Y502500D02*
Y513500D01*
X629500Y508000D02*
X640500D01*
X635000Y502500D02*
Y513500D01*
X182460Y508000D02*
X193460D01*
X187960Y502500D02*
Y513500D01*
X207860Y508000D02*
X218860D01*
X213360Y502500D02*
Y513500D01*
X233260Y508000D02*
X244260D01*
X238760Y502500D02*
Y513500D01*
X258660Y508000D02*
X269660D01*
X264160Y502500D02*
Y513500D01*
X284060Y508000D02*
X295060D01*
X289560Y502500D02*
Y513500D01*
X309460Y508000D02*
X320460D01*
X314960Y502500D02*
Y513500D01*
X334860Y508000D02*
X345860D01*
X340360Y502500D02*
Y513500D01*
X360260Y508000D02*
X371260D01*
X365760Y502500D02*
Y513500D01*
X385660Y508000D02*
X396660D01*
X391160Y502500D02*
Y513500D01*
X411060Y508000D02*
X422060D01*
X416560Y502500D02*
Y513500D01*
X123825Y25400D02*
X155575D01*
X139700Y9525D02*
Y41275D01*
X644525Y76200D02*
X676275D01*
X660400Y60325D02*
Y92075D01*
X136525Y508000D02*
X168275D01*
X152400Y492125D02*
Y523875D01*
X468694Y121500D02*
X475806D01*
X472250Y117944D02*
Y125056D01*
X511444Y267250D02*
X518556D01*
X515000Y263694D02*
Y270806D01*
X114444Y191250D02*
X121556D01*
X118000Y187694D02*
Y194806D01*
X141194Y213500D02*
X148306D01*
X144750Y209944D02*
Y217056D01*
X390694Y138250D02*
X397806D01*
X394250Y134694D02*
Y141806D01*
X428444Y169500D02*
X435556D01*
X432000Y165944D02*
Y173056D01*
X405694Y154750D02*
X412806D01*
X409250Y151194D02*
Y158306D01*
X207044Y106650D02*
X214156D01*
X210600Y103094D02*
Y110206D01*
X364694Y208750D02*
X371806D01*
X368250Y205194D02*
Y212306D01*
X141194Y314250D02*
X148306D01*
X144750Y310694D02*
Y317806D01*
X150694Y340000D02*
X157806D01*
X154250Y336444D02*
Y343556D01*
X388694Y337001D02*
X395806D01*
X392250Y333445D02*
Y340557D01*
X367444Y311500D02*
X374556D01*
X371000Y307944D02*
Y315056D01*
X521596Y353625D02*
X528708D01*
X525153Y350069D02*
Y357181D01*
X528000Y334694D02*
X535112D01*
X531556Y331138D02*
Y338250D01*
X536944Y320749D02*
X544056D01*
X540500Y317193D02*
Y324305D01*
X422846Y290152D02*
X429958D01*
X426403Y286596D02*
Y293708D01*
X458392Y322638D02*
X465504D01*
X461948Y319082D02*
Y326194D01*
X593852Y219900D02*
X600964D01*
X597408Y216344D02*
Y223456D01*
X534194Y232750D02*
X541306D01*
X537750Y229194D02*
Y236306D01*
X408432Y360172D02*
X415544D01*
X411988Y356616D02*
Y363728D01*
X347980Y360172D02*
X355092D01*
X351536Y356616D02*
Y363728D01*
X419944Y209500D02*
X427056D01*
X423500Y205944D02*
Y213056D01*
X302944Y333500D02*
X310056D01*
X306500Y329944D02*
Y337056D01*
X438194Y350750D02*
X445306D01*
X441750Y347194D02*
Y354306D01*
X409194Y332250D02*
X416306D01*
X412750Y328694D02*
Y335806D01*
M02*
