G04*
G04 #@! TF.GenerationSoftware,Altium Limited,Altium Designer,23.10.1 (27)*
G04*
G04 Layer_Physical_Order=1*
G04 Layer_Color=255*
%FSLAX44Y44*%
%MOMM*%
G71*
G04*
G04 #@! TF.SameCoordinates,DC49990F-6EA9-493E-B2B0-75892BC7290B*
G04*
G04*
G04 #@! TF.FilePolarity,Positive*
G04*
G01*
G75*
%ADD12C,0.2000*%
%ADD16C,0.2540*%
%ADD17R,0.8000X0.8000*%
%ADD18R,0.6153X0.5725*%
%ADD19R,1.1500X1.1500*%
%ADD20R,1.2500X1.0000*%
%ADD21R,1.3061X1.0582*%
%ADD22R,1.3562X1.1046*%
%ADD23R,2.0000X3.0000*%
%ADD24R,0.9500X0.8000*%
%ADD25R,0.7000X0.5000*%
%ADD26R,2.6000X1.0000*%
%ADD27R,1.0000X1.2500*%
%ADD28O,0.3000X2.1000*%
%ADD29O,2.1000X0.3000*%
%ADD30R,0.8000X0.9500*%
%ADD31R,0.3100X0.6600*%
%ADD32R,1.3562X1.0546*%
%ADD33R,0.8721X1.0043*%
G04:AMPARAMS|DCode=34|XSize=1.0043mm|YSize=0.8721mm|CornerRadius=0.4361mm|HoleSize=0mm|Usage=FLASHONLY|Rotation=270.000|XOffset=0mm|YOffset=0mm|HoleType=Round|Shape=RoundedRectangle|*
%AMROUNDEDRECTD34*
21,1,1.0043,0.0000,0,0,270.0*
21,1,0.1322,0.8721,0,0,270.0*
1,1,0.8721,0.0000,-0.0661*
1,1,0.8721,0.0000,0.0661*
1,1,0.8721,0.0000,0.0661*
1,1,0.8721,0.0000,-0.0661*
%
%ADD34ROUNDEDRECTD34*%
G04:AMPARAMS|DCode=35|XSize=1.0043mm|YSize=3.1821mm|CornerRadius=0.4369mm|HoleSize=0mm|Usage=FLASHONLY|Rotation=270.000|XOffset=0mm|YOffset=0mm|HoleType=Round|Shape=RoundedRectangle|*
%AMROUNDEDRECTD35*
21,1,1.0043,2.3084,0,0,270.0*
21,1,0.1306,3.1821,0,0,270.0*
1,1,0.8737,-1.1542,-0.0653*
1,1,0.8737,-1.1542,0.0653*
1,1,0.8737,1.1542,0.0653*
1,1,0.8737,1.1542,-0.0653*
%
%ADD35ROUNDEDRECTD35*%
%ADD36R,2.0000X1.7500*%
%ADD37R,1.3500X0.4000*%
%ADD38R,1.4562X1.3046*%
%ADD39R,0.5200X0.5200*%
%ADD40R,1.0200X1.9050*%
%ADD41R,0.5500X0.3000*%
%ADD51R,1.5200X1.5200*%
%ADD52C,1.5200*%
%ADD59R,0.1000X0.1000*%
%ADD60C,0.4000*%
%ADD61C,0.3000*%
%ADD62C,0.2400*%
%ADD63C,0.5000*%
%ADD64C,0.4500*%
%ADD65C,3.1750*%
%ADD66C,1.7000*%
%ADD67R,1.7000X1.7000*%
%ADD68R,1.7000X1.7000*%
%ADD69C,1.2700*%
G36*
X657066Y516779D02*
Y403861D01*
X657320Y402585D01*
X658042Y401503D01*
X682466Y377079D01*
Y52181D01*
X658043Y27757D01*
X657320Y26676D01*
X657066Y25400D01*
Y3334D01*
X3334D01*
Y530066D01*
X643779D01*
X657066Y516779D01*
D02*
G37*
%LPC*%
G36*
X645500Y518500D02*
X624500D01*
Y497500D01*
X645500D01*
Y518500D01*
D02*
G37*
G36*
X610982D02*
X608218D01*
X605547Y517784D01*
X603153Y516402D01*
X601198Y514447D01*
X599816Y512053D01*
X599100Y509382D01*
Y506618D01*
X599816Y503947D01*
X601198Y501553D01*
X603153Y499598D01*
X605547Y498216D01*
X608218Y497500D01*
X610982D01*
X613653Y498216D01*
X616047Y499598D01*
X618002Y501553D01*
X619384Y503947D01*
X620100Y506618D01*
Y509382D01*
X619384Y512053D01*
X618002Y514447D01*
X616047Y516402D01*
X613653Y517784D01*
X610982Y518500D01*
D02*
G37*
G36*
X585582D02*
X582818D01*
X580147Y517784D01*
X577753Y516402D01*
X575798Y514447D01*
X574416Y512053D01*
X573700Y509382D01*
Y506618D01*
X574416Y503947D01*
X575798Y501553D01*
X577753Y499598D01*
X580147Y498216D01*
X582818Y497500D01*
X585582D01*
X588253Y498216D01*
X590647Y499598D01*
X592602Y501553D01*
X593984Y503947D01*
X594700Y506618D01*
Y509382D01*
X593984Y512053D01*
X592602Y514447D01*
X590647Y516402D01*
X588253Y517784D01*
X585582Y518500D01*
D02*
G37*
G36*
X560182D02*
X557418D01*
X554747Y517784D01*
X552353Y516402D01*
X550398Y514447D01*
X549016Y512053D01*
X548300Y509382D01*
Y506618D01*
X549016Y503947D01*
X550398Y501553D01*
X552353Y499598D01*
X554747Y498216D01*
X557418Y497500D01*
X560182D01*
X562853Y498216D01*
X565247Y499598D01*
X567202Y501553D01*
X568584Y503947D01*
X569300Y506618D01*
Y509382D01*
X568584Y512053D01*
X567202Y514447D01*
X565247Y516402D01*
X562853Y517784D01*
X560182Y518500D01*
D02*
G37*
G36*
X534782D02*
X532018D01*
X529347Y517784D01*
X526953Y516402D01*
X524998Y514447D01*
X523616Y512053D01*
X522900Y509382D01*
Y506618D01*
X523616Y503947D01*
X524998Y501553D01*
X526953Y499598D01*
X529347Y498216D01*
X532018Y497500D01*
X534782D01*
X537453Y498216D01*
X539847Y499598D01*
X541802Y501553D01*
X543184Y503947D01*
X543900Y506618D01*
Y509382D01*
X543184Y512053D01*
X541802Y514447D01*
X539847Y516402D01*
X537453Y517784D01*
X534782Y518500D01*
D02*
G37*
G36*
X509382D02*
X506618D01*
X503947Y517784D01*
X501553Y516402D01*
X499598Y514447D01*
X498216Y512053D01*
X497500Y509382D01*
Y506618D01*
X498216Y503947D01*
X499598Y501553D01*
X501553Y499598D01*
X503947Y498216D01*
X506618Y497500D01*
X509382D01*
X512053Y498216D01*
X514447Y499598D01*
X516402Y501553D01*
X517784Y503947D01*
X518500Y506618D01*
Y509382D01*
X517784Y512053D01*
X516402Y514447D01*
X514447Y516402D01*
X512053Y517784D01*
X509382Y518500D01*
D02*
G37*
G36*
X483982D02*
X481218D01*
X478547Y517784D01*
X476153Y516402D01*
X474198Y514447D01*
X472816Y512053D01*
X472100Y509382D01*
Y506618D01*
X472816Y503947D01*
X474198Y501553D01*
X476153Y499598D01*
X478547Y498216D01*
X481218Y497500D01*
X483982D01*
X486653Y498216D01*
X489047Y499598D01*
X491002Y501553D01*
X492384Y503947D01*
X493100Y506618D01*
Y509382D01*
X492384Y512053D01*
X491002Y514447D01*
X489047Y516402D01*
X486653Y517784D01*
X483982Y518500D01*
D02*
G37*
G36*
X458582D02*
X455818D01*
X453147Y517784D01*
X450753Y516402D01*
X448798Y514447D01*
X447416Y512053D01*
X446700Y509382D01*
Y506618D01*
X447416Y503947D01*
X448798Y501553D01*
X450753Y499598D01*
X453147Y498216D01*
X455818Y497500D01*
X458582D01*
X461253Y498216D01*
X463647Y499598D01*
X465602Y501553D01*
X466984Y503947D01*
X467700Y506618D01*
Y509382D01*
X466984Y512053D01*
X465602Y514447D01*
X463647Y516402D01*
X461253Y517784D01*
X458582Y518500D01*
D02*
G37*
G36*
X427060D02*
X406060D01*
Y497500D01*
X427060D01*
Y518500D01*
D02*
G37*
G36*
X392542D02*
X389778D01*
X387107Y517784D01*
X384713Y516402D01*
X382758Y514447D01*
X381376Y512053D01*
X380660Y509382D01*
Y506618D01*
X381376Y503947D01*
X382758Y501553D01*
X384713Y499598D01*
X387107Y498216D01*
X389778Y497500D01*
X392542D01*
X395213Y498216D01*
X397607Y499598D01*
X399562Y501553D01*
X400944Y503947D01*
X401660Y506618D01*
Y509382D01*
X400944Y512053D01*
X399562Y514447D01*
X397607Y516402D01*
X395213Y517784D01*
X392542Y518500D01*
D02*
G37*
G36*
X367142D02*
X364378D01*
X361707Y517784D01*
X359313Y516402D01*
X357358Y514447D01*
X355976Y512053D01*
X355260Y509382D01*
Y506618D01*
X355976Y503947D01*
X357358Y501553D01*
X359313Y499598D01*
X361707Y498216D01*
X364378Y497500D01*
X367142D01*
X369813Y498216D01*
X372207Y499598D01*
X374162Y501553D01*
X375544Y503947D01*
X376260Y506618D01*
Y509382D01*
X375544Y512053D01*
X374162Y514447D01*
X372207Y516402D01*
X369813Y517784D01*
X367142Y518500D01*
D02*
G37*
G36*
X341742D02*
X338978D01*
X336307Y517784D01*
X333913Y516402D01*
X331958Y514447D01*
X330576Y512053D01*
X329860Y509382D01*
Y506618D01*
X330576Y503947D01*
X331958Y501553D01*
X333913Y499598D01*
X336307Y498216D01*
X338978Y497500D01*
X341742D01*
X344413Y498216D01*
X346807Y499598D01*
X348762Y501553D01*
X350144Y503947D01*
X350860Y506618D01*
Y509382D01*
X350144Y512053D01*
X348762Y514447D01*
X346807Y516402D01*
X344413Y517784D01*
X341742Y518500D01*
D02*
G37*
G36*
X316342D02*
X313578D01*
X310907Y517784D01*
X308513Y516402D01*
X306558Y514447D01*
X305176Y512053D01*
X304460Y509382D01*
Y506618D01*
X305176Y503947D01*
X306558Y501553D01*
X308513Y499598D01*
X310907Y498216D01*
X313578Y497500D01*
X316342D01*
X319013Y498216D01*
X321407Y499598D01*
X323362Y501553D01*
X324744Y503947D01*
X325460Y506618D01*
Y509382D01*
X324744Y512053D01*
X323362Y514447D01*
X321407Y516402D01*
X319013Y517784D01*
X316342Y518500D01*
D02*
G37*
G36*
X290942D02*
X288178D01*
X285507Y517784D01*
X283113Y516402D01*
X281158Y514447D01*
X279776Y512053D01*
X279060Y509382D01*
Y506618D01*
X279776Y503947D01*
X281158Y501553D01*
X283113Y499598D01*
X285507Y498216D01*
X288178Y497500D01*
X290942D01*
X293613Y498216D01*
X296007Y499598D01*
X297962Y501553D01*
X299344Y503947D01*
X300060Y506618D01*
Y509382D01*
X299344Y512053D01*
X297962Y514447D01*
X296007Y516402D01*
X293613Y517784D01*
X290942Y518500D01*
D02*
G37*
G36*
X265542D02*
X262778D01*
X260107Y517784D01*
X257713Y516402D01*
X255758Y514447D01*
X254376Y512053D01*
X253660Y509382D01*
Y506618D01*
X254376Y503947D01*
X255758Y501553D01*
X257713Y499598D01*
X260107Y498216D01*
X262778Y497500D01*
X265542D01*
X268213Y498216D01*
X270607Y499598D01*
X272562Y501553D01*
X273944Y503947D01*
X274660Y506618D01*
Y509382D01*
X273944Y512053D01*
X272562Y514447D01*
X270607Y516402D01*
X268213Y517784D01*
X265542Y518500D01*
D02*
G37*
G36*
X240142D02*
X237378D01*
X234707Y517784D01*
X232313Y516402D01*
X230358Y514447D01*
X228976Y512053D01*
X228260Y509382D01*
Y506618D01*
X228976Y503947D01*
X230358Y501553D01*
X232313Y499598D01*
X234707Y498216D01*
X237378Y497500D01*
X240142D01*
X242813Y498216D01*
X245207Y499598D01*
X247162Y501553D01*
X248544Y503947D01*
X249260Y506618D01*
Y509382D01*
X248544Y512053D01*
X247162Y514447D01*
X245207Y516402D01*
X242813Y517784D01*
X240142Y518500D01*
D02*
G37*
G36*
X214742D02*
X211978D01*
X209307Y517784D01*
X206913Y516402D01*
X204958Y514447D01*
X203576Y512053D01*
X202860Y509382D01*
Y506618D01*
X203576Y503947D01*
X204958Y501553D01*
X206913Y499598D01*
X209307Y498216D01*
X211978Y497500D01*
X214742D01*
X217413Y498216D01*
X219807Y499598D01*
X221762Y501553D01*
X223144Y503947D01*
X223860Y506618D01*
Y509382D01*
X223144Y512053D01*
X221762Y514447D01*
X219807Y516402D01*
X217413Y517784D01*
X214742Y518500D01*
D02*
G37*
G36*
X189342D02*
X186578D01*
X183907Y517784D01*
X181513Y516402D01*
X179558Y514447D01*
X178176Y512053D01*
X177460Y509382D01*
Y506618D01*
X178176Y503947D01*
X179558Y501553D01*
X181513Y499598D01*
X183907Y498216D01*
X186578Y497500D01*
X189342D01*
X192013Y498216D01*
X194407Y499598D01*
X196362Y501553D01*
X197744Y503947D01*
X198460Y506618D01*
Y509382D01*
X197744Y512053D01*
X196362Y514447D01*
X194407Y516402D01*
X192013Y517784D01*
X189342Y518500D01*
D02*
G37*
G36*
X154160Y525875D02*
X150639D01*
X147186Y525188D01*
X143933Y523841D01*
X141005Y521884D01*
X138516Y519395D01*
X136559Y516467D01*
X135212Y513214D01*
X134525Y509761D01*
Y506240D01*
X135212Y502786D01*
X136559Y499533D01*
X138516Y496605D01*
X141005Y494116D01*
X143933Y492159D01*
X147186Y490812D01*
X150639Y490125D01*
X154160D01*
X157614Y490812D01*
X160867Y492159D01*
X163795Y494116D01*
X166284Y496605D01*
X168241Y499533D01*
X169588Y502786D01*
X170275Y506240D01*
Y509761D01*
X169588Y513214D01*
X168241Y516467D01*
X166284Y519395D01*
X163795Y521884D01*
X160867Y523841D01*
X157614Y525188D01*
X154160Y525875D01*
D02*
G37*
G36*
X189040Y482540D02*
X177770D01*
Y466270D01*
X189040D01*
Y482540D01*
D02*
G37*
G36*
X175230D02*
X163960D01*
Y466270D01*
X175230D01*
Y482540D01*
D02*
G37*
G36*
X113500Y482000D02*
X89500D01*
Y468334D01*
X74250D01*
X72974Y468080D01*
X71892Y467357D01*
X62669Y458134D01*
X33600D01*
Y464400D01*
X14400D01*
Y445200D01*
X33600D01*
Y451466D01*
X64050D01*
X65326Y451720D01*
X66408Y452443D01*
X75631Y461666D01*
X89500D01*
Y448000D01*
X113500D01*
Y482000D01*
D02*
G37*
G36*
X189040Y463730D02*
X177770D01*
Y447460D01*
X189040D01*
Y463730D01*
D02*
G37*
G36*
X175230D02*
X163960D01*
Y447460D01*
X175230D01*
Y463730D01*
D02*
G37*
G36*
X25335Y439540D02*
X25270D01*
Y430670D01*
X34140D01*
Y430735D01*
X33449Y433314D01*
X32114Y435626D01*
X30226Y437514D01*
X27914Y438849D01*
X25335Y439540D01*
D02*
G37*
G36*
X22730D02*
X22665D01*
X20086Y438849D01*
X17774Y437514D01*
X15886Y435626D01*
X14551Y433314D01*
X13860Y430735D01*
Y430670D01*
X22730D01*
Y439540D01*
D02*
G37*
G36*
X34140Y428130D02*
X25270D01*
Y419260D01*
X25335D01*
X27914Y419951D01*
X30226Y421286D01*
X32114Y423174D01*
X33449Y425486D01*
X34140Y428065D01*
Y428130D01*
D02*
G37*
G36*
X22730D02*
X13860D01*
Y428065D01*
X14551Y425486D01*
X15886Y423174D01*
X17774Y421286D01*
X20086Y419951D01*
X22665Y419260D01*
X22730D01*
Y428130D01*
D02*
G37*
G36*
X25264Y413600D02*
X22736D01*
X20294Y412946D01*
X18105Y411682D01*
X16318Y409895D01*
X15054Y407706D01*
X14400Y405264D01*
Y402736D01*
X15054Y400295D01*
X16318Y398106D01*
X18105Y396318D01*
X20294Y395055D01*
X22736Y394400D01*
X25264D01*
X27705Y395055D01*
X29894Y396318D01*
X31682Y398106D01*
X32946Y400295D01*
X33600Y402736D01*
Y405264D01*
X32946Y407706D01*
X31682Y409895D01*
X29894Y411682D01*
X27705Y412946D01*
X25264Y413600D01*
D02*
G37*
G36*
X277790Y386290D02*
X272520D01*
Y381020D01*
X277790D01*
Y386290D01*
D02*
G37*
G36*
X269980D02*
X264710D01*
Y381020D01*
X269980D01*
Y386290D01*
D02*
G37*
G36*
X277790Y378480D02*
X272520D01*
Y373210D01*
X277790D01*
Y378480D01*
D02*
G37*
G36*
X269980D02*
X264710D01*
Y373210D01*
X269980D01*
Y378480D01*
D02*
G37*
G36*
X645500Y485550D02*
X631300D01*
Y462500D01*
X633262D01*
X633748Y461327D01*
X625784Y453363D01*
X625062Y452282D01*
X624808Y451006D01*
Y414385D01*
X580573Y370149D01*
X579850Y369068D01*
X579596Y367792D01*
Y366319D01*
X573928D01*
X573333Y366686D01*
X573186Y366833D01*
X572819Y367428D01*
Y372916D01*
X577328D01*
X578604Y373170D01*
X579686Y373893D01*
X615358Y409564D01*
X616080Y410646D01*
X616334Y411922D01*
Y430450D01*
X620100D01*
Y453500D01*
X605900D01*
Y430450D01*
X609666D01*
Y413303D01*
X575947Y379584D01*
X572819D01*
Y385250D01*
X572547Y386616D01*
X571773Y387774D01*
X571199Y388158D01*
X570927Y389682D01*
X589958Y408713D01*
X590680Y409794D01*
X590934Y411070D01*
Y462500D01*
X594700D01*
Y485550D01*
X580500D01*
Y462500D01*
X584266D01*
Y412451D01*
X563987Y392172D01*
X562814Y392658D01*
Y398849D01*
X564558Y400592D01*
X565280Y401674D01*
X565534Y402950D01*
Y430450D01*
X569300D01*
Y453500D01*
X555100D01*
Y434784D01*
X553927Y434298D01*
X540134Y448091D01*
Y462500D01*
X543900D01*
Y485550D01*
X529700D01*
Y462500D01*
X533466D01*
Y446710D01*
X533720Y445434D01*
X534442Y444352D01*
X550916Y427879D01*
Y413721D01*
X549743Y413235D01*
X543120Y419857D01*
X542038Y420580D01*
X540762Y420834D01*
X521631D01*
X514734Y427731D01*
Y430450D01*
X518500D01*
Y453500D01*
X504300D01*
Y430450D01*
X508066D01*
Y426350D01*
X508320Y425074D01*
X509043Y423992D01*
X517892Y415143D01*
X518974Y414420D01*
X520250Y414166D01*
X539381D01*
X545686Y407861D01*
Y399655D01*
X544512Y399168D01*
X533907Y409773D01*
X532826Y410496D01*
X531550Y410750D01*
X499065D01*
X489334Y420481D01*
Y462500D01*
X493100D01*
Y485550D01*
X478900D01*
Y462500D01*
X482666D01*
Y419100D01*
X482920Y417824D01*
X483643Y416743D01*
X495326Y405059D01*
X496408Y404336D01*
X497684Y404082D01*
X530169D01*
X540916Y393335D01*
Y392051D01*
X539743Y391565D01*
X538806Y392501D01*
X537724Y393224D01*
X536448Y393478D01*
X495509D01*
X463934Y425053D01*
Y430450D01*
X467700D01*
Y453500D01*
X453500D01*
Y430450D01*
X457266D01*
Y423672D01*
X457520Y422396D01*
X458242Y421315D01*
X491771Y387786D01*
X492852Y387064D01*
X494128Y386810D01*
X509697D01*
X510739Y385540D01*
X510681Y385250D01*
Y367428D01*
X510314Y366833D01*
X510167Y366686D01*
X509572Y366319D01*
X504084D01*
Y368250D01*
X503830Y369526D01*
X503107Y370608D01*
X459357Y414358D01*
X458276Y415080D01*
X457000Y415334D01*
X448750D01*
Y418750D01*
X436750D01*
Y418750D01*
X436250D01*
Y418750D01*
X424250D01*
Y415334D01*
X403364D01*
X402088Y415080D01*
X401007Y414358D01*
X354635Y367986D01*
X352635Y368522D01*
X350437D01*
X348313Y367953D01*
X346409Y366854D01*
X344854Y365299D01*
X343755Y363395D01*
X343186Y361271D01*
Y359073D01*
X343755Y356949D01*
X344854Y355045D01*
X346409Y353490D01*
X348202Y352455D01*
Y308610D01*
X348206Y308588D01*
X347164Y307318D01*
X319564D01*
Y360770D01*
X319310Y362046D01*
X318587Y363128D01*
X314834Y366881D01*
Y375388D01*
X316577D01*
Y385112D01*
X297852D01*
Y383584D01*
X293750D01*
Y385750D01*
X281750D01*
Y373750D01*
X293750D01*
Y376916D01*
X297852D01*
Y375388D01*
X308166D01*
Y365500D01*
X308420Y364224D01*
X309142Y363143D01*
X312896Y359389D01*
Y341319D01*
X311626Y340806D01*
X309931Y341784D01*
X307770Y342363D01*
Y333500D01*
X306500D01*
Y332230D01*
X297637D01*
X298216Y330069D01*
X299386Y328041D01*
X299844Y327583D01*
X299318Y326313D01*
X296679D01*
Y319770D01*
X306000D01*
Y317230D01*
X296679D01*
Y310687D01*
X297219D01*
Y302479D01*
X283519Y288780D01*
X283519Y288780D01*
X282635Y287456D01*
X282495Y286753D01*
X280914Y285697D01*
X279508Y283593D01*
X279015Y281111D01*
Y279789D01*
X279508Y277307D01*
X280914Y275203D01*
X281422Y274864D01*
Y221696D01*
X273958D01*
X271473Y221202D01*
X269366Y219795D01*
X267959Y217688D01*
X267465Y215203D01*
Y213897D01*
X267959Y211413D01*
X269366Y209306D01*
X271360Y207974D01*
X271565Y207656D01*
X271861Y206679D01*
X270260Y205078D01*
X244434D01*
X242873Y204768D01*
X242095Y204248D01*
X149046D01*
X148705Y205518D01*
X150209Y206386D01*
X151864Y208041D01*
X153034Y210068D01*
X153613Y212230D01*
X135887D01*
X136466Y210068D01*
X137636Y208041D01*
X139291Y206386D01*
X140795Y205518D01*
X140454Y204248D01*
X27797D01*
X20860Y211185D01*
Y234375D01*
X20984Y234478D01*
X22139Y234803D01*
X22329Y234604D01*
X22373Y234573D01*
X22404Y234529D01*
X22603Y234339D01*
X22649Y234310D01*
X22683Y234268D01*
X22892Y234089D01*
X22939Y234063D01*
X22975Y234022D01*
X23193Y233855D01*
X23241Y233831D01*
X23279Y233792D01*
X23506Y233636D01*
X23555Y233615D01*
X23595Y233578D01*
X23830Y233435D01*
X23880Y233416D01*
X23922Y233381D01*
X24164Y233250D01*
X24215Y233234D01*
X24259Y233202D01*
X24507Y233083D01*
X24559Y233070D01*
X24604Y233040D01*
X24858Y232935D01*
X24911Y232924D01*
X24958Y232896D01*
X25217Y232805D01*
X25271Y232797D01*
X25318Y232772D01*
X25582Y232694D01*
X25636Y232689D01*
X25685Y232666D01*
X25952Y232602D01*
X26007Y232600D01*
X26057Y232580D01*
X26327Y232530D01*
X26381Y232530D01*
X26433Y232513D01*
X26705Y232477D01*
X26759Y232481D01*
X26811Y232466D01*
X27085Y232444D01*
X27139Y232451D01*
X27192Y232439D01*
X27466Y232432D01*
X27493Y232436D01*
X27520Y232431D01*
X38520D01*
X38547Y232436D01*
X38574Y232432D01*
X38848Y232439D01*
X38901Y232451D01*
X38955Y232444D01*
X39229Y232466D01*
X39281Y232481D01*
X39335Y232477D01*
X39607Y232513D01*
X39659Y232530D01*
X39713Y232530D01*
X39983Y232580D01*
X40033Y232600D01*
X40087Y232602D01*
X40355Y232666D01*
X40404Y232689D01*
X40458Y232694D01*
X40722Y232772D01*
X40770Y232797D01*
X40823Y232805D01*
X41082Y232896D01*
X41129Y232924D01*
X41182Y232935D01*
X41436Y233040D01*
X41481Y233070D01*
X41533Y233083D01*
X41781Y233202D01*
X41825Y233234D01*
X41876Y233250D01*
X42118Y233381D01*
X42160Y233416D01*
X42210Y233435D01*
X42445Y233578D01*
X42485Y233615D01*
X42534Y233636D01*
X42761Y233792D01*
X42799Y233831D01*
X42847Y233855D01*
X43065Y234022D01*
X43101Y234063D01*
X43148Y234089D01*
X43357Y234268D01*
X43391Y234310D01*
X43437Y234339D01*
X43636Y234529D01*
X43667Y234573D01*
X43712Y234604D01*
X43901Y234803D01*
X43930Y234849D01*
X43972Y234883D01*
X44151Y235092D01*
X44177Y235139D01*
X44218Y235175D01*
X44385Y235393D01*
X44409Y235441D01*
X44448Y235479D01*
X44604Y235706D01*
X44625Y235756D01*
X44662Y235795D01*
X44805Y236030D01*
X44824Y236080D01*
X44859Y236122D01*
X44990Y236364D01*
X45006Y236415D01*
X45038Y236459D01*
X45157Y236707D01*
X45170Y236759D01*
X45200Y236804D01*
X45305Y237058D01*
X45316Y237111D01*
X45343Y237158D01*
X45435Y237417D01*
X45443Y237471D01*
X45468Y237519D01*
X45546Y237782D01*
X45551Y237836D01*
X45574Y237885D01*
X45638Y238152D01*
X45640Y238206D01*
X45660Y238257D01*
X45710Y238527D01*
X45710Y238581D01*
X45727Y238633D01*
X45763Y238905D01*
X45760Y238959D01*
X45774Y239011D01*
X45796Y239285D01*
X45789Y239339D01*
X45801Y239392D01*
X45809Y239667D01*
X45799Y239720D01*
X45809Y239773D01*
X45801Y240048D01*
X45789Y240101D01*
X45796Y240155D01*
X45774Y240429D01*
X45760Y240481D01*
X45763Y240535D01*
X45727Y240807D01*
X45710Y240859D01*
X45710Y240913D01*
X45660Y241183D01*
X45640Y241234D01*
X45638Y241288D01*
X45574Y241555D01*
X45551Y241604D01*
X45546Y241658D01*
X45468Y241921D01*
X45443Y241969D01*
X45435Y242023D01*
X45343Y242282D01*
X45316Y242329D01*
X45305Y242382D01*
X45200Y242636D01*
X45170Y242681D01*
X45157Y242733D01*
X45038Y242981D01*
X45006Y243025D01*
X44990Y243076D01*
X44859Y243318D01*
X44824Y243360D01*
X44805Y243410D01*
X44662Y243645D01*
X44625Y243685D01*
X44604Y243734D01*
X44448Y243961D01*
X44409Y243999D01*
X44385Y244047D01*
X44218Y244265D01*
X44177Y244301D01*
X44151Y244348D01*
X43972Y244557D01*
X43930Y244591D01*
X43901Y244637D01*
X43841Y244700D01*
X43951Y245368D01*
X44366Y245970D01*
X45020D01*
Y267470D01*
X45020D01*
Y268470D01*
X45020D01*
Y289970D01*
X44366D01*
X43951Y290572D01*
X43841Y291240D01*
X43901Y291303D01*
X43930Y291349D01*
X43972Y291383D01*
X44151Y291592D01*
X44177Y291639D01*
X44218Y291675D01*
X44385Y291893D01*
X44409Y291941D01*
X44448Y291979D01*
X44604Y292206D01*
X44625Y292255D01*
X44662Y292295D01*
X44805Y292530D01*
X44824Y292580D01*
X44859Y292622D01*
X44990Y292864D01*
X45006Y292915D01*
X45038Y292959D01*
X45157Y293207D01*
X45170Y293259D01*
X45200Y293304D01*
X45305Y293558D01*
X45316Y293611D01*
X45343Y293658D01*
X45435Y293917D01*
X45443Y293971D01*
X45468Y294019D01*
X45546Y294282D01*
X45551Y294336D01*
X45574Y294385D01*
X45638Y294652D01*
X45640Y294706D01*
X45660Y294757D01*
X45710Y295027D01*
X45710Y295081D01*
X45727Y295133D01*
X45763Y295405D01*
X45760Y295459D01*
X45774Y295511D01*
X45796Y295785D01*
X45789Y295839D01*
X45801Y295892D01*
X45809Y296167D01*
X45799Y296220D01*
X45809Y296273D01*
X45801Y296548D01*
X45789Y296601D01*
X45796Y296655D01*
X45774Y296929D01*
X45760Y296981D01*
X45763Y297035D01*
X45727Y297307D01*
X45710Y297359D01*
X45710Y297413D01*
X45660Y297683D01*
X45640Y297734D01*
X45638Y297788D01*
X45574Y298055D01*
X45551Y298104D01*
X45546Y298158D01*
X45468Y298421D01*
X45443Y298469D01*
X45435Y298523D01*
X45343Y298782D01*
X45316Y298829D01*
X45305Y298882D01*
X45200Y299136D01*
X45170Y299181D01*
X45157Y299233D01*
X45038Y299481D01*
X45006Y299525D01*
X44990Y299576D01*
X44859Y299818D01*
X44824Y299860D01*
X44805Y299910D01*
X44662Y300145D01*
X44625Y300185D01*
X44604Y300234D01*
X44448Y300461D01*
X44409Y300499D01*
X44385Y300547D01*
X44218Y300765D01*
X44177Y300801D01*
X44151Y300848D01*
X43972Y301057D01*
X43930Y301091D01*
X43901Y301137D01*
X43712Y301336D01*
X43667Y301367D01*
X43636Y301411D01*
X43437Y301601D01*
X43391Y301630D01*
X43357Y301672D01*
X43148Y301851D01*
X43101Y301877D01*
X43065Y301918D01*
X42847Y302085D01*
X42799Y302109D01*
X42761Y302148D01*
X42534Y302304D01*
X42485Y302325D01*
X42445Y302362D01*
X42210Y302505D01*
X42160Y302524D01*
X42118Y302559D01*
X41876Y302690D01*
X41825Y302706D01*
X41781Y302738D01*
X41533Y302857D01*
X41481Y302870D01*
X41436Y302900D01*
X41182Y303005D01*
X41129Y303016D01*
X41082Y303043D01*
X40823Y303135D01*
X40769Y303143D01*
X40722Y303168D01*
X40458Y303246D01*
X40404Y303251D01*
X40355Y303274D01*
X40087Y303338D01*
X40033Y303340D01*
X39983Y303360D01*
X39713Y303410D01*
X39659Y303410D01*
X39607Y303427D01*
X39335Y303463D01*
X39281Y303459D01*
X39229Y303474D01*
X38955Y303496D01*
X38901Y303489D01*
X38848Y303501D01*
X38574Y303508D01*
X38547Y303504D01*
X38520Y303509D01*
X27520D01*
X27493Y303504D01*
X27466Y303508D01*
X27192Y303501D01*
X27139Y303489D01*
X27085Y303496D01*
X26811Y303474D01*
X26759Y303459D01*
X26705Y303463D01*
X26433Y303427D01*
X26381Y303410D01*
X26327Y303410D01*
X26057Y303360D01*
X26007Y303340D01*
X25952Y303338D01*
X25685Y303274D01*
X25636Y303251D01*
X25582Y303246D01*
X25318Y303168D01*
X25271Y303143D01*
X25217Y303135D01*
X24958Y303043D01*
X24911Y303016D01*
X24858Y303005D01*
X24604Y302900D01*
X24559Y302870D01*
X24507Y302857D01*
X24259Y302738D01*
X24215Y302706D01*
X24164Y302690D01*
X23922Y302559D01*
X23880Y302524D01*
X23830Y302505D01*
X23595Y302362D01*
X23555Y302325D01*
X23506Y302304D01*
X23279Y302148D01*
X23241Y302109D01*
X23193Y302085D01*
X22975Y301918D01*
X22939Y301877D01*
X22892Y301851D01*
X22683Y301672D01*
X22649Y301630D01*
X22603Y301601D01*
X22404Y301411D01*
X22373Y301367D01*
X22329Y301336D01*
X22139Y301137D01*
X20984Y301462D01*
X20860Y301565D01*
Y368460D01*
X21868Y369233D01*
X22736Y369000D01*
X25264D01*
X27705Y369655D01*
X29894Y370918D01*
X31682Y372706D01*
X32946Y374895D01*
X33600Y377336D01*
Y379864D01*
X32946Y382306D01*
X31682Y384495D01*
X29894Y386282D01*
X27705Y387546D01*
X25264Y388200D01*
X22736D01*
X20294Y387546D01*
X18105Y386282D01*
X16318Y384495D01*
X15054Y382306D01*
X14400Y379864D01*
Y377336D01*
X15054Y374895D01*
X15246Y374562D01*
X15168Y374484D01*
X14446Y373402D01*
X14192Y372126D01*
Y209804D01*
X14446Y208528D01*
X15168Y207446D01*
X24058Y198556D01*
X25140Y197834D01*
X26416Y197580D01*
X110094D01*
X110656Y196310D01*
X109716Y194681D01*
X109137Y192520D01*
X126863D01*
X126284Y194681D01*
X125344Y196310D01*
X125906Y197580D01*
X135687D01*
Y162955D01*
X47011Y74278D01*
X34778D01*
X34682Y74445D01*
X32895Y76232D01*
X30706Y77496D01*
X28264Y78150D01*
X25736D01*
X23295Y77496D01*
X21106Y76232D01*
X19318Y74445D01*
X18054Y72256D01*
X17400Y69814D01*
Y67286D01*
X18054Y64845D01*
X19318Y62656D01*
X21106Y60868D01*
X23295Y59604D01*
X25736Y58950D01*
X28264D01*
X30706Y59604D01*
X32895Y60868D01*
X34682Y62656D01*
X35946Y64845D01*
X36288Y66122D01*
X48700D01*
X48700Y66122D01*
X50261Y66432D01*
X51584Y67316D01*
X142649Y158382D01*
X142649Y158382D01*
X143533Y159705D01*
X143844Y161266D01*
Y197580D01*
X242352D01*
X242873Y197232D01*
X244434Y196922D01*
X271950D01*
X271950Y196922D01*
X273510Y197232D01*
X274834Y198116D01*
X280248Y203531D01*
X281422Y203045D01*
Y200189D01*
X259561Y178328D01*
X219250D01*
Y180250D01*
X205750D01*
Y169020D01*
X205750Y168250D01*
X205750Y166980D01*
Y165084D01*
X185500D01*
Y183000D01*
X161500D01*
Y149000D01*
X185500D01*
Y158416D01*
X205750D01*
Y155750D01*
X219250D01*
Y166980D01*
X219250Y167750D01*
X219250Y169274D01*
X220148Y170172D01*
X261250D01*
X261250Y170172D01*
X262811Y170482D01*
X264134Y171366D01*
X288384Y195616D01*
X289268Y196939D01*
X289578Y198500D01*
X289578Y198500D01*
Y207404D01*
X297042D01*
X299527Y207898D01*
X301634Y209306D01*
X303041Y211413D01*
X303535Y213897D01*
Y215203D01*
X303041Y217688D01*
X301634Y219795D01*
X299527Y221202D01*
X297042Y221696D01*
X289578D01*
Y274864D01*
X290086Y275203D01*
X291492Y277307D01*
X291985Y279789D01*
Y281111D01*
X291492Y283593D01*
X290841Y284566D01*
X302987Y296711D01*
X314781D01*
Y300650D01*
X354781D01*
X357307Y298125D01*
X358388Y297402D01*
X359664Y297148D01*
X375387D01*
X377416Y295119D01*
Y292890D01*
X374020D01*
Y287750D01*
Y282610D01*
X375286D01*
Y215946D01*
X374113Y215460D01*
X373709Y215864D01*
X371682Y217034D01*
X369520Y217613D01*
Y208750D01*
Y199887D01*
X371682Y200466D01*
X373709Y201636D01*
X374113Y202040D01*
X375286Y201554D01*
Y137380D01*
X375387Y136875D01*
X374216Y136249D01*
X366358Y144107D01*
X365276Y144830D01*
X364000Y145084D01*
X358862D01*
Y146612D01*
X340138D01*
Y145084D01*
X331250D01*
Y147500D01*
X319250D01*
Y135500D01*
X331250D01*
Y138416D01*
X340138D01*
Y136887D01*
X358862D01*
Y138416D01*
X362619D01*
X391512Y109522D01*
X392594Y108800D01*
X393870Y108546D01*
X510354D01*
X511630Y108800D01*
X512711Y109522D01*
X516319Y113130D01*
X517042Y114212D01*
X517295Y115488D01*
Y198789D01*
X517042Y200064D01*
X516319Y201146D01*
X485610Y231855D01*
Y305255D01*
X487089Y306734D01*
X488440Y306388D01*
X488486Y306335D01*
X489226Y305227D01*
X490384Y304453D01*
X491750Y304181D01*
X494126D01*
Y234792D01*
X494380Y233517D01*
X495103Y232435D01*
X528918Y198619D01*
Y102834D01*
X377000Y102834D01*
X370500D01*
Y107750D01*
X355000D01*
Y92250D01*
X370500D01*
Y96166D01*
X377000D01*
X530765Y96166D01*
X532040Y96420D01*
X533122Y97142D01*
X534610Y98630D01*
X535333Y99712D01*
X535587Y100988D01*
Y200000D01*
X535333Y201276D01*
X534610Y202358D01*
X500794Y236173D01*
Y240725D01*
X502064Y241251D01*
X536172Y207143D01*
X537254Y206420D01*
X538530Y206166D01*
X595920D01*
X597196Y206420D01*
X598278Y207143D01*
X599766Y208631D01*
X600488Y209712D01*
X600742Y210988D01*
Y212183D01*
X602535Y213218D01*
X604090Y214773D01*
X605189Y216677D01*
X605758Y218801D01*
Y220999D01*
X605189Y223123D01*
X604090Y225027D01*
X602535Y226582D01*
X600631Y227681D01*
X598507Y228250D01*
X596309D01*
X594185Y227681D01*
X592281Y226582D01*
X590726Y225027D01*
X589627Y223123D01*
X589058Y220999D01*
Y218801D01*
X589627Y216677D01*
X590726Y214773D01*
X591395Y214104D01*
X590869Y212834D01*
X539911D01*
X507334Y245411D01*
Y261433D01*
X508604Y261837D01*
X509873Y260569D01*
X511777Y259469D01*
X513900Y258900D01*
X516099D01*
X518223Y259469D01*
X520127Y260569D01*
X521681Y262123D01*
X522717Y263916D01*
X525469D01*
Y261197D01*
X524929D01*
Y254404D01*
X534250D01*
X543571D01*
Y261197D01*
X543031D01*
Y263172D01*
X547031D01*
X547031Y263172D01*
X548592Y263482D01*
X549623Y264172D01*
X554500D01*
X554500Y264172D01*
X554895Y264250D01*
X565750D01*
Y269489D01*
X567020Y270168D01*
X567439Y269888D01*
X569000Y269578D01*
Y264000D01*
X585500D01*
Y266287D01*
X589250D01*
Y263750D01*
X605750D01*
Y277750D01*
X589250D01*
Y275463D01*
X585500D01*
Y278000D01*
X581129D01*
X581018Y278561D01*
X580786Y278909D01*
X580547Y280108D01*
X579773Y281266D01*
X578016Y283023D01*
X576858Y283797D01*
X575493Y284068D01*
X573585D01*
X572779Y285050D01*
X572819Y285250D01*
Y303072D01*
X573186Y303667D01*
X573333Y303814D01*
X573928Y304181D01*
X591750D01*
X593116Y304453D01*
X594273Y305227D01*
X595047Y306384D01*
X595319Y307750D01*
X595047Y309116D01*
X594289Y310250D01*
X595047Y311385D01*
X595319Y312750D01*
X595047Y314116D01*
X594289Y315250D01*
X595047Y316384D01*
X595319Y317750D01*
X595047Y319116D01*
X594289Y320250D01*
X595047Y321385D01*
X595319Y322750D01*
X595047Y324116D01*
X594289Y325250D01*
X595047Y326384D01*
X595319Y327750D01*
X595047Y329115D01*
X594289Y330250D01*
X595047Y331385D01*
X595319Y332750D01*
X595047Y334116D01*
X594289Y335250D01*
X595047Y336384D01*
X595319Y337750D01*
X595240Y338146D01*
X596257Y339416D01*
X600493D01*
X600650Y339385D01*
X609416Y330619D01*
Y127381D01*
X551619Y69584D01*
X219500D01*
Y73250D01*
X203000D01*
Y69584D01*
X185500D01*
Y83000D01*
X161500D01*
Y49000D01*
X185500D01*
Y62916D01*
X203000D01*
Y59250D01*
X219500D01*
Y62916D01*
X553000D01*
X554276Y63169D01*
X555357Y63892D01*
X615108Y123643D01*
X615830Y124724D01*
X616084Y126000D01*
Y332000D01*
X615830Y333276D01*
X615830Y333276D01*
X615108Y334357D01*
X604608Y344858D01*
X603526Y345580D01*
X602990Y345687D01*
X602776Y345830D01*
X601500Y346084D01*
X596258D01*
X595240Y347354D01*
X595319Y347750D01*
X595047Y349115D01*
X594289Y350250D01*
X595047Y351385D01*
X595319Y352750D01*
X595047Y354116D01*
X594289Y355250D01*
X595047Y356384D01*
X595319Y357750D01*
X595047Y359115D01*
X594289Y360250D01*
X595047Y361385D01*
X595319Y362750D01*
X595047Y364116D01*
X594273Y365274D01*
X593116Y366047D01*
X591750Y366319D01*
X587968D01*
X587442Y367589D01*
X630499Y410647D01*
X631222Y411728D01*
X631476Y413004D01*
Y449625D01*
X640758Y458907D01*
X641480Y459988D01*
X641734Y461264D01*
Y462500D01*
X645500D01*
Y485550D01*
D02*
G37*
G36*
X188500Y382000D02*
X164500D01*
Y348000D01*
X188500D01*
Y382000D01*
D02*
G37*
G36*
X662160Y373475D02*
X658640D01*
X655186Y372788D01*
X651933Y371441D01*
X649005Y369484D01*
X646516Y366995D01*
X644559Y364067D01*
X643212Y360814D01*
X642525Y357360D01*
Y353839D01*
X643212Y350386D01*
X644559Y347133D01*
X646516Y344205D01*
X649005Y341716D01*
X651933Y339759D01*
X655186Y338412D01*
X658640Y337725D01*
X662160D01*
X665614Y338412D01*
X668867Y339759D01*
X671795Y341716D01*
X674284Y344205D01*
X676241Y347133D01*
X677588Y350386D01*
X678275Y353839D01*
Y357360D01*
X677588Y360814D01*
X676241Y364067D01*
X674284Y366995D01*
X671795Y369484D01*
X668867Y371441D01*
X665614Y372788D01*
X662160Y373475D01*
D02*
G37*
G36*
X305230Y342363D02*
X303068Y341784D01*
X301041Y340614D01*
X299386Y338959D01*
X298216Y336931D01*
X297637Y334770D01*
X305230D01*
Y342363D01*
D02*
G37*
G36*
X113500Y382000D02*
X89500D01*
Y348000D01*
X98166D01*
Y345698D01*
X98420Y344422D01*
X99142Y343340D01*
X100393Y342090D01*
X98892Y340589D01*
X98170Y339508D01*
X97916Y338232D01*
Y338000D01*
X94250D01*
Y321500D01*
X108250D01*
Y337280D01*
X113710D01*
Y331020D01*
X128790D01*
Y337280D01*
X146334D01*
X146469Y336777D01*
X147568Y334873D01*
X149123Y333318D01*
X151027Y332219D01*
X153151Y331650D01*
X155349D01*
X157473Y332219D01*
X159377Y333318D01*
X160932Y334873D01*
X162031Y336777D01*
X162600Y338901D01*
Y341099D01*
X162031Y343223D01*
X160932Y345127D01*
X159377Y346682D01*
X157473Y347781D01*
X155349Y348350D01*
X153151D01*
X151027Y347781D01*
X149123Y346682D01*
X147568Y345127D01*
X146888Y343948D01*
X107965D01*
X105183Y346730D01*
X105677Y348000D01*
X113500D01*
Y382000D01*
D02*
G37*
G36*
X128790Y328480D02*
X122521D01*
Y320960D01*
X128790D01*
Y328480D01*
D02*
G37*
G36*
X119980D02*
X113710D01*
Y320960D01*
X119980D01*
Y328480D01*
D02*
G37*
G36*
X271821Y326063D02*
X263770D01*
Y319520D01*
X271821D01*
Y326063D01*
D02*
G37*
G36*
X261230D02*
X253179D01*
Y319520D01*
X261230D01*
Y326063D01*
D02*
G37*
G36*
X146020Y323113D02*
Y315520D01*
X153613D01*
X153034Y317681D01*
X151864Y319709D01*
X150209Y321364D01*
X148181Y322534D01*
X146020Y323113D01*
D02*
G37*
G36*
X143480D02*
X141319Y322534D01*
X139291Y321364D01*
X137636Y319709D01*
X136466Y317681D01*
X135887Y315520D01*
X143480D01*
Y323113D01*
D02*
G37*
G36*
X153613Y312980D02*
X146020D01*
Y305387D01*
X148181Y305966D01*
X150209Y307136D01*
X151864Y308791D01*
X153034Y310819D01*
X153613Y312980D01*
D02*
G37*
G36*
X143480D02*
X135887D01*
X136466Y310819D01*
X137636Y308791D01*
X139291Y307136D01*
X141319Y305966D01*
X143480Y305387D01*
Y312980D01*
D02*
G37*
G36*
X663052Y315300D02*
X660288D01*
X657617Y314584D01*
X655223Y313202D01*
X653268Y311247D01*
X651886Y308853D01*
X651170Y306182D01*
Y303418D01*
X651886Y300747D01*
X653268Y298353D01*
X655223Y296398D01*
X657617Y295016D01*
X660288Y294300D01*
X663052D01*
X665723Y295016D01*
X668117Y296398D01*
X670072Y298353D01*
X671454Y300747D01*
X672170Y303418D01*
Y306182D01*
X671454Y308853D01*
X670072Y311247D01*
X668117Y313202D01*
X665723Y314584D01*
X663052Y315300D01*
D02*
G37*
G36*
X646770D02*
X625770D01*
Y294300D01*
X646770D01*
Y315300D01*
D02*
G37*
G36*
X371480Y292890D02*
X367610D01*
Y289020D01*
X371480D01*
Y292890D01*
D02*
G37*
G36*
Y286480D02*
X367610D01*
Y282610D01*
X371480D01*
Y286480D01*
D02*
G37*
G36*
X315301Y288011D02*
X309670D01*
Y281720D01*
X315301D01*
Y288011D01*
D02*
G37*
G36*
X307130D02*
X301500D01*
Y281720D01*
X307130D01*
Y288011D01*
D02*
G37*
G36*
X271821Y316980D02*
X262500D01*
X253179D01*
Y310437D01*
X253719D01*
Y296461D01*
X259266D01*
Y286533D01*
X258014Y285697D01*
X256608Y283593D01*
X256115Y281111D01*
Y279789D01*
X256246Y279127D01*
X254953Y277834D01*
X162541D01*
Y281791D01*
X129959D01*
Y267209D01*
X135916D01*
Y248642D01*
X126031D01*
Y253831D01*
X107469D01*
Y250292D01*
X106199Y249766D01*
X72637Y283328D01*
X71556Y284051D01*
X70280Y284304D01*
X68570D01*
Y284970D01*
X51070D01*
Y276970D01*
Y270470D01*
Y259510D01*
X50530D01*
Y256240D01*
X59820D01*
X69110D01*
Y259510D01*
X68570D01*
Y263970D01*
Y276169D01*
X69840Y276695D01*
X103585Y242950D01*
X104667Y242227D01*
X105942Y241974D01*
X107469D01*
Y238256D01*
X106929D01*
Y230462D01*
X116750D01*
X126571D01*
Y238256D01*
X126031D01*
Y241974D01*
X137762D01*
X139038Y242227D01*
X140119Y242950D01*
X141608Y244438D01*
X142330Y245520D01*
X142584Y246796D01*
Y267209D01*
X150677D01*
Y248239D01*
X150931Y246963D01*
X151653Y245882D01*
X154143Y243393D01*
X155224Y242670D01*
X156500Y242416D01*
X164719D01*
Y237755D01*
X164179D01*
Y229962D01*
X174000D01*
X183821D01*
Y237755D01*
X183281D01*
Y253331D01*
X164719D01*
Y249084D01*
X157881D01*
X157345Y249620D01*
Y267209D01*
X162541D01*
Y271166D01*
X256334D01*
X257610Y271420D01*
X258692Y272142D01*
X260309Y273760D01*
X262600Y273304D01*
X265082Y273798D01*
X267186Y275203D01*
X268591Y277307D01*
X269085Y279789D01*
Y281111D01*
X268591Y283593D01*
X267186Y285697D01*
X265934Y286533D01*
Y296461D01*
X271281D01*
Y310437D01*
X271821D01*
Y316980D01*
D02*
G37*
G36*
X315301Y279180D02*
X309670D01*
Y272889D01*
X315301D01*
Y279180D01*
D02*
G37*
G36*
X307130D02*
X301500D01*
Y272889D01*
X307130D01*
Y279180D01*
D02*
G37*
G36*
X663052Y289900D02*
X660288D01*
X657617Y289184D01*
X655223Y287802D01*
X653268Y285847D01*
X651886Y283453D01*
X651170Y280782D01*
Y278018D01*
X651886Y275347D01*
X653268Y272953D01*
X655223Y270998D01*
X657617Y269616D01*
X660288Y268900D01*
X663052D01*
X665723Y269616D01*
X668117Y270998D01*
X670072Y272953D01*
X671454Y275347D01*
X672170Y278018D01*
Y280782D01*
X671454Y283453D01*
X670072Y285847D01*
X668117Y287802D01*
X665723Y289184D01*
X663052Y289900D01*
D02*
G37*
G36*
X637652D02*
X634888D01*
X632217Y289184D01*
X629823Y287802D01*
X627868Y285847D01*
X626486Y283453D01*
X625770Y280782D01*
Y278018D01*
X626486Y275347D01*
X627868Y272953D01*
X629823Y270998D01*
X632217Y269616D01*
X634888Y268900D01*
X637652D01*
X640323Y269616D01*
X642717Y270998D01*
X644672Y272953D01*
X646054Y275347D01*
X646770Y278018D01*
Y280782D01*
X646054Y283453D01*
X644672Y285847D01*
X642717Y287802D01*
X640323Y289184D01*
X637652Y289900D01*
D02*
G37*
G36*
X566290Y258790D02*
X558770D01*
Y252520D01*
X566290D01*
Y258790D01*
D02*
G37*
G36*
X556230D02*
X548710D01*
Y252520D01*
X556230D01*
Y258790D01*
D02*
G37*
G36*
X586040Y258540D02*
X578520D01*
Y252270D01*
X586040D01*
Y258540D01*
D02*
G37*
G36*
X575980D02*
X568460D01*
Y252270D01*
X575980D01*
Y258540D01*
D02*
G37*
G36*
X606290Y258290D02*
X598770D01*
Y252020D01*
X606290D01*
Y258290D01*
D02*
G37*
G36*
X596230D02*
X588710D01*
Y252020D01*
X596230D01*
Y258290D01*
D02*
G37*
G36*
X69110Y253700D02*
X61090D01*
Y250430D01*
X69110D01*
Y253700D01*
D02*
G37*
G36*
X58550D02*
X50530D01*
Y250430D01*
X58550D01*
Y253700D01*
D02*
G37*
G36*
X543571Y251864D02*
X535520D01*
Y245071D01*
X543571D01*
Y251864D01*
D02*
G37*
G36*
X532980D02*
X524929D01*
Y245071D01*
X532980D01*
Y251864D01*
D02*
G37*
G36*
X566290Y249980D02*
X558770D01*
Y243710D01*
X566290D01*
Y249980D01*
D02*
G37*
G36*
X556230D02*
X548710D01*
Y243710D01*
X556230D01*
Y249980D01*
D02*
G37*
G36*
X663052Y264500D02*
X660288D01*
X657617Y263784D01*
X655223Y262402D01*
X653268Y260447D01*
X651886Y258053D01*
X651170Y255382D01*
Y252618D01*
X651886Y249947D01*
X653268Y247553D01*
X655223Y245598D01*
X657617Y244216D01*
X660288Y243500D01*
X663052D01*
X665723Y244216D01*
X668117Y245598D01*
X670072Y247553D01*
X671454Y249947D01*
X672170Y252618D01*
Y255382D01*
X671454Y258053D01*
X670072Y260447D01*
X668117Y262402D01*
X665723Y263784D01*
X663052Y264500D01*
D02*
G37*
G36*
X637652D02*
X634888D01*
X632217Y263784D01*
X629823Y262402D01*
X627868Y260447D01*
X626486Y258053D01*
X625770Y255382D01*
Y252618D01*
X626486Y249947D01*
X627868Y247553D01*
X629823Y245598D01*
X632217Y244216D01*
X634888Y243500D01*
X637652D01*
X640323Y244216D01*
X642717Y245598D01*
X644672Y247553D01*
X646054Y249947D01*
X646770Y252618D01*
Y255382D01*
X646054Y258053D01*
X644672Y260447D01*
X642717Y262402D01*
X640323Y263784D01*
X637652Y264500D01*
D02*
G37*
G36*
X586040Y249730D02*
X578520D01*
Y243460D01*
X586040D01*
Y249730D01*
D02*
G37*
G36*
X575980D02*
X568460D01*
Y243460D01*
X575980D01*
Y249730D01*
D02*
G37*
G36*
X606290Y249480D02*
X598770D01*
Y243210D01*
X606290D01*
Y249480D01*
D02*
G37*
G36*
X596230D02*
X588710D01*
Y243210D01*
X596230D01*
Y249480D01*
D02*
G37*
G36*
X539020Y241613D02*
Y234020D01*
X546613D01*
X546034Y236181D01*
X544864Y238208D01*
X543209Y239864D01*
X541181Y241034D01*
X539020Y241613D01*
D02*
G37*
G36*
X536480D02*
X534319Y241034D01*
X532291Y239864D01*
X530636Y238208D01*
X529466Y236181D01*
X528887Y234020D01*
X536480D01*
Y241613D01*
D02*
G37*
G36*
X582331Y237831D02*
X574531D01*
Y231270D01*
X582331D01*
Y237831D01*
D02*
G37*
G36*
X556469D02*
X548669D01*
Y231270D01*
X556469D01*
Y237831D01*
D02*
G37*
G36*
X546613Y231480D02*
X539020D01*
Y223887D01*
X541181Y224466D01*
X543209Y225636D01*
X544864Y227291D01*
X546034Y229318D01*
X546613Y231480D01*
D02*
G37*
G36*
X536480D02*
X528887D01*
X529466Y229318D01*
X530636Y227291D01*
X532291Y225636D01*
X534319Y224466D01*
X536480Y223887D01*
Y231480D01*
D02*
G37*
G36*
X582331Y228730D02*
X574531D01*
Y222169D01*
X582331D01*
Y228730D01*
D02*
G37*
G36*
X571991Y237831D02*
X559009D01*
Y230000D01*
Y222169D01*
X571991D01*
Y230000D01*
Y237831D01*
D02*
G37*
G36*
X556469Y228730D02*
X548669D01*
Y222169D01*
X556469D01*
Y228730D01*
D02*
G37*
G36*
X126571Y227922D02*
X118020D01*
Y220129D01*
X126571D01*
Y227922D01*
D02*
G37*
G36*
X115480D02*
X106929D01*
Y220129D01*
X115480D01*
Y227922D01*
D02*
G37*
G36*
X183821Y227422D02*
X175270D01*
Y219629D01*
X183821D01*
Y227422D01*
D02*
G37*
G36*
X172730D02*
X164179D01*
Y219629D01*
X172730D01*
Y227422D01*
D02*
G37*
G36*
X146020Y222363D02*
Y214770D01*
X153613D01*
X153034Y216931D01*
X151864Y218958D01*
X150209Y220613D01*
X148181Y221784D01*
X146020Y222363D01*
D02*
G37*
G36*
X143480D02*
X141319Y221784D01*
X139291Y220613D01*
X137636Y218958D01*
X136466Y216931D01*
X135887Y214770D01*
X143480D01*
Y222363D01*
D02*
G37*
G36*
X366980Y217613D02*
X364819Y217034D01*
X362792Y215864D01*
X361136Y214209D01*
X359966Y212181D01*
X359387Y210020D01*
X366980D01*
Y217613D01*
D02*
G37*
G36*
Y207480D02*
X359387D01*
X359966Y205319D01*
X361136Y203291D01*
X362792Y201636D01*
X364819Y200466D01*
X366980Y199887D01*
Y207480D01*
D02*
G37*
G36*
X126863Y189980D02*
X119270D01*
Y182387D01*
X121431Y182966D01*
X123459Y184136D01*
X125114Y185791D01*
X126284Y187819D01*
X126863Y189980D01*
D02*
G37*
G36*
X116730D02*
X109137D01*
X109716Y187819D01*
X110886Y185791D01*
X112541Y184136D01*
X114569Y182966D01*
X116730Y182387D01*
Y189980D01*
D02*
G37*
G36*
X111040Y183540D02*
X99770D01*
Y167270D01*
X111040D01*
Y183540D01*
D02*
G37*
G36*
X97230D02*
X85960D01*
Y167270D01*
X97230D01*
Y183540D01*
D02*
G37*
G36*
X111040Y164730D02*
X99770D01*
Y148460D01*
X111040D01*
Y164730D01*
D02*
G37*
G36*
X97230D02*
X85960D01*
Y148460D01*
X97230D01*
Y164730D01*
D02*
G37*
G36*
X315290Y148040D02*
X310020D01*
Y142770D01*
X315290D01*
Y148040D01*
D02*
G37*
G36*
X307480D02*
X302210D01*
Y142770D01*
X307480D01*
Y148040D01*
D02*
G37*
G36*
X36600Y154350D02*
X17400D01*
Y135150D01*
X36600D01*
Y154350D01*
D02*
G37*
G36*
X315290Y140230D02*
X310020D01*
Y134960D01*
X315290D01*
Y140230D01*
D02*
G37*
G36*
X307480D02*
X302210D01*
Y134960D01*
X307480D01*
Y140230D01*
D02*
G37*
G36*
X28264Y128950D02*
X25736D01*
X23295Y128296D01*
X21106Y127032D01*
X19318Y125245D01*
X18054Y123055D01*
X17400Y120614D01*
Y118086D01*
X18054Y115645D01*
X19318Y113455D01*
X21106Y111668D01*
X23295Y110404D01*
X25736Y109750D01*
X28264D01*
X30706Y110404D01*
X32895Y111668D01*
X34682Y113455D01*
X35946Y115645D01*
X36600Y118086D01*
Y120614D01*
X35946Y123055D01*
X34682Y125245D01*
X32895Y127032D01*
X30706Y128296D01*
X28264Y128950D01*
D02*
G37*
G36*
X211870Y115513D02*
Y107920D01*
X219463D01*
X218884Y110081D01*
X217714Y112109D01*
X216059Y113764D01*
X214031Y114934D01*
X211870Y115513D01*
D02*
G37*
G36*
X209330D02*
X207169Y114934D01*
X205141Y113764D01*
X203486Y112109D01*
X202316Y110081D01*
X201737Y107920D01*
X209330D01*
Y115513D01*
D02*
G37*
G36*
X347000Y107750D02*
X331500D01*
Y103084D01*
X327000D01*
Y104250D01*
X318540D01*
Y104790D01*
X313770D01*
Y99750D01*
Y94710D01*
X318540D01*
Y95250D01*
X327000D01*
Y96416D01*
X331500D01*
Y92250D01*
X347000D01*
Y107750D01*
D02*
G37*
G36*
X311230Y104790D02*
X306460D01*
Y101020D01*
X311230D01*
Y104790D01*
D02*
G37*
G36*
X219463Y105380D02*
X211870D01*
Y97787D01*
X214031Y98366D01*
X216059Y99536D01*
X217714Y101191D01*
X218884Y103219D01*
X219463Y105380D01*
D02*
G37*
G36*
X209330D02*
X201737D01*
X202316Y103219D01*
X203486Y101191D01*
X205141Y99536D01*
X207169Y98366D01*
X209330Y97787D01*
Y105380D01*
D02*
G37*
G36*
X28335Y104090D02*
X28270D01*
Y95220D01*
X37140D01*
Y95285D01*
X36449Y97864D01*
X35114Y100176D01*
X33226Y102064D01*
X30914Y103399D01*
X28335Y104090D01*
D02*
G37*
G36*
X25730D02*
X25665D01*
X23086Y103399D01*
X20774Y102064D01*
X18886Y100176D01*
X17551Y97864D01*
X16860Y95285D01*
Y95220D01*
X25730D01*
Y104090D01*
D02*
G37*
G36*
X311230Y98480D02*
X306460D01*
Y94710D01*
X311230D01*
Y98480D01*
D02*
G37*
G36*
X220040Y93790D02*
X212520D01*
Y87520D01*
X220040D01*
Y93790D01*
D02*
G37*
G36*
X209980D02*
X202460D01*
Y87520D01*
X209980D01*
Y93790D01*
D02*
G37*
G36*
X37140Y92680D02*
X28270D01*
Y83810D01*
X28335D01*
X30914Y84501D01*
X33226Y85836D01*
X35114Y87724D01*
X36449Y90036D01*
X37140Y92615D01*
Y92680D01*
D02*
G37*
G36*
X25730D02*
X16860D01*
Y92615D01*
X17551Y90036D01*
X18886Y87724D01*
X20774Y85836D01*
X23086Y84501D01*
X25665Y83810D01*
X25730D01*
Y92680D01*
D02*
G37*
G36*
X220040Y84980D02*
X212520D01*
Y78710D01*
X220040D01*
Y84980D01*
D02*
G37*
G36*
X209980D02*
X202460D01*
Y78710D01*
X209980D01*
Y84980D01*
D02*
G37*
G36*
X662160Y94075D02*
X658640D01*
X655186Y93388D01*
X651933Y92041D01*
X649005Y90084D01*
X646516Y87595D01*
X644559Y84667D01*
X643212Y81414D01*
X642525Y77961D01*
Y74440D01*
X643212Y70986D01*
X644559Y67733D01*
X646516Y64805D01*
X649005Y62316D01*
X651933Y60359D01*
X655186Y59012D01*
X658640Y58325D01*
X662160D01*
X665614Y59012D01*
X668867Y60359D01*
X671795Y62316D01*
X674284Y64805D01*
X676241Y67733D01*
X677588Y70986D01*
X678275Y74440D01*
Y77961D01*
X677588Y81414D01*
X676241Y84667D01*
X674284Y87595D01*
X671795Y90084D01*
X668867Y92041D01*
X665614Y93388D01*
X662160Y94075D01*
D02*
G37*
G36*
X110500Y83000D02*
X86500D01*
Y49000D01*
X110500D01*
Y83000D01*
D02*
G37*
G36*
X645500Y35900D02*
X624500D01*
Y14900D01*
X645500D01*
Y35900D01*
D02*
G37*
G36*
X610982D02*
X608218D01*
X605547Y35184D01*
X603153Y33802D01*
X601198Y31847D01*
X599816Y29453D01*
X599100Y26782D01*
Y24018D01*
X599816Y21347D01*
X601198Y18953D01*
X603153Y16998D01*
X605547Y15616D01*
X608218Y14900D01*
X610982D01*
X613653Y15616D01*
X616047Y16998D01*
X618002Y18953D01*
X619384Y21347D01*
X620100Y24018D01*
Y26782D01*
X619384Y29453D01*
X618002Y31847D01*
X616047Y33802D01*
X613653Y35184D01*
X610982Y35900D01*
D02*
G37*
G36*
X585582D02*
X582818D01*
X580147Y35184D01*
X577753Y33802D01*
X575798Y31847D01*
X574416Y29453D01*
X573700Y26782D01*
Y24018D01*
X574416Y21347D01*
X575798Y18953D01*
X577753Y16998D01*
X580147Y15616D01*
X582818Y14900D01*
X585582D01*
X588253Y15616D01*
X590647Y16998D01*
X592602Y18953D01*
X593984Y21347D01*
X594700Y24018D01*
Y26782D01*
X593984Y29453D01*
X592602Y31847D01*
X590647Y33802D01*
X588253Y35184D01*
X585582Y35900D01*
D02*
G37*
G36*
X560182D02*
X557418D01*
X554747Y35184D01*
X552353Y33802D01*
X550398Y31847D01*
X549016Y29453D01*
X548300Y26782D01*
Y24018D01*
X549016Y21347D01*
X550398Y18953D01*
X552353Y16998D01*
X554747Y15616D01*
X557418Y14900D01*
X560182D01*
X562853Y15616D01*
X565247Y16998D01*
X567202Y18953D01*
X568584Y21347D01*
X569300Y24018D01*
Y26782D01*
X568584Y29453D01*
X567202Y31847D01*
X565247Y33802D01*
X562853Y35184D01*
X560182Y35900D01*
D02*
G37*
G36*
X534782D02*
X532018D01*
X529347Y35184D01*
X526953Y33802D01*
X524998Y31847D01*
X523616Y29453D01*
X522900Y26782D01*
Y24018D01*
X523616Y21347D01*
X524998Y18953D01*
X526953Y16998D01*
X529347Y15616D01*
X532018Y14900D01*
X534782D01*
X537453Y15616D01*
X539847Y16998D01*
X541802Y18953D01*
X543184Y21347D01*
X543900Y24018D01*
Y26782D01*
X543184Y29453D01*
X541802Y31847D01*
X539847Y33802D01*
X537453Y35184D01*
X534782Y35900D01*
D02*
G37*
G36*
X509382D02*
X506618D01*
X503947Y35184D01*
X501553Y33802D01*
X499598Y31847D01*
X498216Y29453D01*
X497500Y26782D01*
Y24018D01*
X498216Y21347D01*
X499598Y18953D01*
X501553Y16998D01*
X503947Y15616D01*
X506618Y14900D01*
X509382D01*
X512053Y15616D01*
X514447Y16998D01*
X516402Y18953D01*
X517784Y21347D01*
X518500Y24018D01*
Y26782D01*
X517784Y29453D01*
X516402Y31847D01*
X514447Y33802D01*
X512053Y35184D01*
X509382Y35900D01*
D02*
G37*
G36*
X458582D02*
X455818D01*
X453147Y35184D01*
X450753Y33802D01*
X448798Y31847D01*
X447416Y29453D01*
X446700Y26782D01*
Y24018D01*
X447416Y21347D01*
X448798Y18953D01*
X450753Y16998D01*
X453147Y15616D01*
X455818Y14900D01*
X458582D01*
X461253Y15616D01*
X463647Y16998D01*
X465602Y18953D01*
X466984Y21347D01*
X467700Y24018D01*
Y26782D01*
X466984Y29453D01*
X465602Y31847D01*
X463647Y33802D01*
X461253Y35184D01*
X458582Y35900D01*
D02*
G37*
G36*
X433182D02*
X430418D01*
X427747Y35184D01*
X425353Y33802D01*
X423398Y31847D01*
X422016Y29453D01*
X421300Y26782D01*
Y24018D01*
X422016Y21347D01*
X423398Y18953D01*
X425353Y16998D01*
X427747Y15616D01*
X430418Y14900D01*
X433182D01*
X435853Y15616D01*
X438247Y16998D01*
X440202Y18953D01*
X441584Y21347D01*
X442300Y24018D01*
Y26782D01*
X441584Y29453D01*
X440202Y31847D01*
X438247Y33802D01*
X435853Y35184D01*
X433182Y35900D01*
D02*
G37*
G36*
X407782D02*
X405018D01*
X402347Y35184D01*
X399953Y33802D01*
X397998Y31847D01*
X396616Y29453D01*
X395900Y26782D01*
Y24018D01*
X396616Y21347D01*
X397998Y18953D01*
X399953Y16998D01*
X402347Y15616D01*
X405018Y14900D01*
X407782D01*
X410453Y15616D01*
X412847Y16998D01*
X414802Y18953D01*
X416184Y21347D01*
X416900Y24018D01*
Y26782D01*
X416184Y29453D01*
X414802Y31847D01*
X412847Y33802D01*
X410453Y35184D01*
X407782Y35900D01*
D02*
G37*
G36*
X382382D02*
X379618D01*
X376947Y35184D01*
X374553Y33802D01*
X372598Y31847D01*
X371216Y29453D01*
X370500Y26782D01*
Y24018D01*
X371216Y21347D01*
X372598Y18953D01*
X374553Y16998D01*
X376947Y15616D01*
X379618Y14900D01*
X382382D01*
X385053Y15616D01*
X387447Y16998D01*
X389402Y18953D01*
X390784Y21347D01*
X391500Y24018D01*
Y26782D01*
X390784Y29453D01*
X389402Y31847D01*
X387447Y33802D01*
X385053Y35184D01*
X382382Y35900D01*
D02*
G37*
G36*
X356982D02*
X354218D01*
X351547Y35184D01*
X349153Y33802D01*
X347198Y31847D01*
X345816Y29453D01*
X345100Y26782D01*
Y24018D01*
X345816Y21347D01*
X347198Y18953D01*
X349153Y16998D01*
X351547Y15616D01*
X354218Y14900D01*
X356982D01*
X359653Y15616D01*
X362047Y16998D01*
X364002Y18953D01*
X365384Y21347D01*
X366100Y24018D01*
Y26782D01*
X365384Y29453D01*
X364002Y31847D01*
X362047Y33802D01*
X359653Y35184D01*
X356982Y35900D01*
D02*
G37*
G36*
X331582D02*
X328818D01*
X326147Y35184D01*
X323753Y33802D01*
X321798Y31847D01*
X320416Y29453D01*
X319700Y26782D01*
Y24018D01*
X320416Y21347D01*
X321798Y18953D01*
X323753Y16998D01*
X326147Y15616D01*
X328818Y14900D01*
X331582D01*
X334253Y15616D01*
X336647Y16998D01*
X338602Y18953D01*
X339984Y21347D01*
X340700Y24018D01*
Y26782D01*
X339984Y29453D01*
X338602Y31847D01*
X336647Y33802D01*
X334253Y35184D01*
X331582Y35900D01*
D02*
G37*
G36*
X306182D02*
X303418D01*
X300747Y35184D01*
X298353Y33802D01*
X296398Y31847D01*
X295016Y29453D01*
X294300Y26782D01*
Y24018D01*
X295016Y21347D01*
X296398Y18953D01*
X298353Y16998D01*
X300747Y15616D01*
X303418Y14900D01*
X306182D01*
X308853Y15616D01*
X311247Y16998D01*
X313202Y18953D01*
X314584Y21347D01*
X315300Y24018D01*
Y26782D01*
X314584Y29453D01*
X313202Y31847D01*
X311247Y33802D01*
X308853Y35184D01*
X306182Y35900D01*
D02*
G37*
G36*
X289900D02*
X268900D01*
Y14900D01*
X289900D01*
Y35900D01*
D02*
G37*
G36*
X141461Y43275D02*
X137940D01*
X134486Y42588D01*
X131233Y41241D01*
X128305Y39284D01*
X125816Y36795D01*
X123859Y33867D01*
X122512Y30614D01*
X121825Y27160D01*
Y23640D01*
X122512Y20186D01*
X123859Y16933D01*
X125816Y14005D01*
X128305Y11516D01*
X131233Y9559D01*
X134486Y8212D01*
X137940Y7525D01*
X141461D01*
X144914Y8212D01*
X148167Y9559D01*
X151095Y11516D01*
X153584Y14005D01*
X155541Y16933D01*
X156888Y20186D01*
X157575Y23640D01*
Y27160D01*
X156888Y30614D01*
X155541Y33867D01*
X153584Y36795D01*
X151095Y39284D01*
X148167Y41241D01*
X144914Y42588D01*
X141461Y43275D01*
D02*
G37*
%LPD*%
G36*
X567884Y363953D02*
X569079Y363716D01*
X569513Y363469D01*
X569969Y363013D01*
X570216Y362579D01*
X570453Y361385D01*
X571211Y360250D01*
X570453Y359115D01*
X570182Y357750D01*
X570453Y356384D01*
X571211Y355250D01*
X570453Y354116D01*
X570182Y352750D01*
X570453Y351385D01*
X571211Y350250D01*
X570453Y349115D01*
X570182Y347750D01*
X570453Y346384D01*
X571211Y345250D01*
X570453Y344116D01*
X570182Y342750D01*
X570453Y341385D01*
X571211Y340250D01*
X570453Y339115D01*
X570182Y337750D01*
X570453Y336384D01*
X571211Y335250D01*
X570453Y334116D01*
X570182Y332750D01*
X570453Y331385D01*
X571211Y330250D01*
X570453Y329115D01*
X570182Y327750D01*
X570453Y326384D01*
X571211Y325250D01*
X570453Y324116D01*
X570182Y322750D01*
X570453Y321385D01*
X571211Y320250D01*
X570453Y319116D01*
X570182Y317750D01*
X570453Y316384D01*
X571211Y315250D01*
X570453Y314116D01*
X570182Y312750D01*
X570453Y311385D01*
X571211Y310250D01*
X570453Y309116D01*
X570182Y307750D01*
X570190Y307708D01*
X569513Y307031D01*
X569079Y306784D01*
X567884Y306547D01*
X566750Y305789D01*
X565616Y306547D01*
X564250Y306818D01*
X562884Y306547D01*
X561750Y305789D01*
X560616Y306547D01*
X559250Y306818D01*
X557884Y306547D01*
X557208Y306095D01*
X557163Y306162D01*
X555826Y307055D01*
X555520Y307116D01*
Y294250D01*
X552980D01*
Y307116D01*
X552673Y307055D01*
X551337Y306162D01*
X551292Y306095D01*
X550616Y306547D01*
X549250Y306818D01*
X547884Y306547D01*
X546750Y305789D01*
X545616Y306547D01*
X544250Y306818D01*
X542884Y306547D01*
X541750Y305789D01*
X540616Y306547D01*
X539250Y306818D01*
X537884Y306547D01*
X536750Y305789D01*
X535616Y306547D01*
X534250Y306818D01*
X532884Y306547D01*
X531750Y305789D01*
X530616Y306547D01*
X529250Y306818D01*
X527884Y306547D01*
X527844Y306520D01*
X527465Y306700D01*
X527199Y308230D01*
X531721Y312752D01*
X538085D01*
X539400Y312399D01*
X541599D01*
X543723Y312968D01*
X545627Y314067D01*
X547182Y315622D01*
X548281Y317526D01*
X548850Y319650D01*
Y321848D01*
X548281Y323972D01*
X547182Y325876D01*
X545627Y327431D01*
X543723Y328530D01*
X541599Y329099D01*
X539400D01*
X538603Y330200D01*
X539337Y331471D01*
X539906Y333595D01*
Y335794D01*
X539337Y337917D01*
X538238Y339821D01*
X536683Y341376D01*
X534779Y342475D01*
X532655Y343044D01*
X530457D01*
X528333Y342475D01*
X526429Y341376D01*
X524874Y339821D01*
X523722Y340365D01*
X523569Y340467D01*
X523026Y340830D01*
X523026Y340830D01*
X523026Y340830D01*
X522448Y340945D01*
X521750Y341084D01*
X514257D01*
X513240Y342354D01*
X513318Y342750D01*
X513047Y344116D01*
X512595Y344792D01*
X512663Y344837D01*
X513555Y346174D01*
X513616Y346480D01*
X500750D01*
Y349020D01*
X513616D01*
X513555Y349326D01*
X512663Y350662D01*
X512595Y350708D01*
X513047Y351385D01*
X513318Y352750D01*
X513047Y354116D01*
X512289Y355250D01*
X513047Y356384D01*
X513318Y357750D01*
X513047Y359115D01*
X512289Y360250D01*
X513047Y361385D01*
X513284Y362579D01*
X513531Y363013D01*
X513987Y363469D01*
X514421Y363716D01*
X515616Y363953D01*
X516750Y364711D01*
X517884Y363953D01*
X519250Y363682D01*
X520616Y363953D01*
X521750Y364711D01*
X522884Y363953D01*
X523555Y363820D01*
X523900Y363751D01*
X523900Y363751D01*
X524250Y363681D01*
X524720Y363774D01*
X524772Y363776D01*
X524771Y363785D01*
X525154Y363862D01*
X525616Y363953D01*
X526750Y364711D01*
X527884Y363953D01*
X529250Y363682D01*
X530616Y363953D01*
X531750Y364711D01*
X532884Y363953D01*
X534250Y363682D01*
X535616Y363953D01*
X536750Y364711D01*
X537884Y363953D01*
X539250Y363682D01*
X540616Y363953D01*
X541750Y364711D01*
X542884Y363953D01*
X544250Y363682D01*
X545616Y363953D01*
X546750Y364711D01*
X547884Y363953D01*
X549250Y363682D01*
X550616Y363953D01*
X551750Y364711D01*
X552884Y363953D01*
X554250Y363682D01*
X555616Y363953D01*
X556750Y364711D01*
X557884Y363953D01*
X559250Y363682D01*
X560616Y363953D01*
X561750Y364711D01*
X562884Y363953D01*
X564250Y363682D01*
X565616Y363953D01*
X566750Y364711D01*
X567884Y363953D01*
D02*
G37*
G36*
X496696Y367589D02*
X496170Y366319D01*
X491750D01*
X490384Y366047D01*
X489226Y365274D01*
X488453Y364116D01*
X488265Y363168D01*
X487129Y362679D01*
X486969Y362668D01*
X478279Y371358D01*
X477198Y372080D01*
X475922Y372334D01*
X450000D01*
Y375750D01*
X438000D01*
Y375750D01*
X437500D01*
Y375750D01*
X425500D01*
Y372334D01*
X420816D01*
X419540Y372080D01*
X418459Y371358D01*
X415087Y367986D01*
X413087Y368522D01*
X410889D01*
X408765Y367953D01*
X406861Y366854D01*
X405306Y365299D01*
X404207Y363395D01*
X403638Y361271D01*
Y359073D01*
X404207Y356949D01*
X405306Y355045D01*
X406330Y354021D01*
X406283Y352535D01*
X406209Y352413D01*
X406074Y352323D01*
X400642Y346891D01*
X399920Y345810D01*
X399666Y344534D01*
Y343953D01*
X398396Y343427D01*
X397709Y344114D01*
X395682Y345285D01*
X393520Y345864D01*
Y337001D01*
X390980D01*
Y345864D01*
X388819Y345285D01*
X386792Y344114D01*
X385136Y342459D01*
X385104Y342403D01*
X383834Y342744D01*
Y364641D01*
X408825Y389632D01*
X432872D01*
X434148Y389886D01*
X435229Y390608D01*
X445107Y400486D01*
X445830Y401568D01*
X446084Y402844D01*
Y405250D01*
X448750D01*
Y408666D01*
X455619D01*
X496696Y367589D01*
D02*
G37*
G36*
X482033Y358173D02*
X481547Y357000D01*
X471000D01*
Y340500D01*
X473299D01*
X473825Y339230D01*
X465047Y330452D01*
X463047Y330988D01*
X460849D01*
X458725Y330419D01*
X456821Y329320D01*
X455266Y327765D01*
X454167Y325861D01*
X453598Y323737D01*
Y321539D01*
X454167Y319415D01*
X455266Y317511D01*
X456821Y315956D01*
X458725Y314857D01*
X460849Y314288D01*
X463027D01*
X463074Y314239D01*
X463677Y313142D01*
X444021Y293486D01*
X434119D01*
X433084Y295279D01*
X431530Y296834D01*
X429626Y297933D01*
X427502Y298502D01*
X425303D01*
X423180Y297933D01*
X421275Y296834D01*
X419721Y295279D01*
X418621Y293375D01*
X418052Y291252D01*
Y289053D01*
X418621Y286929D01*
X419721Y285025D01*
X421275Y283471D01*
X423180Y282371D01*
X425303Y281802D01*
X427502D01*
X429626Y282371D01*
X431530Y283471D01*
X433084Y285025D01*
X434119Y286818D01*
X445402D01*
X446678Y287072D01*
X447760Y287795D01*
X481032Y321068D01*
X482206Y320582D01*
Y317702D01*
X469642Y305139D01*
X468920Y304057D01*
X468666Y302781D01*
Y220750D01*
X468920Y219474D01*
X469642Y218392D01*
X497166Y190869D01*
Y137084D01*
X489500D01*
Y140750D01*
X459500D01*
Y126750D01*
X464173D01*
X464906Y125480D01*
X464469Y124723D01*
X463900Y122599D01*
Y120401D01*
X464469Y118277D01*
X465504Y116484D01*
X465280Y115676D01*
X465088Y115214D01*
X395251D01*
X388843Y121622D01*
X389468Y122793D01*
X389974Y122692D01*
X439462D01*
X440738Y122946D01*
X441820Y123669D01*
X450414Y132262D01*
X451136Y133344D01*
X451390Y134620D01*
Y152511D01*
X456295Y157416D01*
X459500D01*
Y153750D01*
X489500D01*
Y167750D01*
X459500D01*
Y164084D01*
X456295D01*
X446584Y173795D01*
Y179750D01*
X450250D01*
Y196250D01*
X436250D01*
Y179750D01*
X439916D01*
Y175953D01*
X438646Y175427D01*
X437459Y176614D01*
X435431Y177784D01*
X433170Y178390D01*
X431720D01*
X430804Y179198D01*
X430790Y179643D01*
Y186730D01*
X424520D01*
Y179210D01*
X428983D01*
X429151Y177940D01*
X428569Y177784D01*
X426541Y176614D01*
X424886Y174959D01*
X423716Y172931D01*
X423137Y170770D01*
X432000D01*
Y168230D01*
X423137D01*
X423716Y166069D01*
X424886Y164041D01*
X425824Y163104D01*
X425297Y161834D01*
X421631D01*
X412084Y171381D01*
Y321862D01*
X412039Y322090D01*
X413081Y323360D01*
X413920D01*
X416181Y323966D01*
X418209Y325136D01*
X419864Y326791D01*
X421034Y328818D01*
X421613Y330980D01*
X412750D01*
Y332250D01*
X411480D01*
Y341113D01*
X409319Y340534D01*
X407604Y339544D01*
X406334Y340043D01*
Y343153D01*
X409813Y346632D01*
X425682D01*
X426958Y346885D01*
X428040Y347608D01*
X431590Y351159D01*
X432860Y350633D01*
Y349580D01*
X433466Y347319D01*
X434636Y345291D01*
X436292Y343636D01*
X438319Y342466D01*
X440480Y341887D01*
Y350750D01*
X443020D01*
Y341887D01*
X445182Y342466D01*
X447209Y343636D01*
X448864Y345291D01*
X449190Y345856D01*
X450460Y345516D01*
Y339960D01*
X456730D01*
Y348750D01*
Y357540D01*
X450460D01*
Y355984D01*
X449190Y355644D01*
X448864Y356209D01*
X447209Y357864D01*
X446521Y358261D01*
X446495Y358457D01*
X446513Y359732D01*
X447080Y360582D01*
X447334Y361858D01*
Y362250D01*
X450000D01*
Y365666D01*
X474541D01*
X482033Y358173D01*
D02*
G37*
G36*
X424250Y405250D02*
X436250D01*
Y405250D01*
X436750D01*
Y405250D01*
X438825D01*
X439171Y403980D01*
X431491Y396300D01*
X407444D01*
X406168Y396046D01*
X405086Y395323D01*
X378143Y368380D01*
X377420Y367298D01*
X377166Y366022D01*
Y319619D01*
X375896Y318939D01*
X374431Y319784D01*
X372270Y320363D01*
Y311500D01*
X371000D01*
Y310230D01*
X362137D01*
X362716Y308069D01*
X363886Y306041D01*
X364842Y305086D01*
X364316Y303816D01*
X361045D01*
X358520Y306342D01*
X358519Y306342D01*
X354870Y309991D01*
Y352455D01*
X356663Y353490D01*
X358218Y355045D01*
X359317Y356949D01*
X359886Y359073D01*
Y361271D01*
X359350Y363271D01*
X404745Y408666D01*
X424250D01*
Y405250D01*
D02*
G37*
G36*
X522449Y332337D02*
X522988Y331977D01*
X523530Y331614D01*
X523530Y331614D01*
X523531Y331614D01*
X523748Y331571D01*
X523775Y331471D01*
X524874Y329567D01*
X526429Y328013D01*
X528333Y326913D01*
X530457Y326344D01*
X532655D01*
X533453Y325243D01*
X532719Y323972D01*
X532150Y321848D01*
Y319650D01*
X531973Y319420D01*
X530340D01*
X529064Y319166D01*
X527982Y318443D01*
X516981Y307442D01*
X516258Y306360D01*
X515682Y306503D01*
X515616Y306547D01*
X514421Y306784D01*
X513987Y307031D01*
X513310Y307708D01*
X513318Y307750D01*
X513047Y309116D01*
X512289Y310250D01*
X513047Y311385D01*
X513318Y312750D01*
X513047Y314116D01*
X512289Y315250D01*
X513047Y316384D01*
X513318Y317750D01*
X513047Y319116D01*
X512289Y320250D01*
X513047Y321385D01*
X513318Y322750D01*
X513047Y324116D01*
X512289Y325250D01*
X513047Y326384D01*
X513318Y327750D01*
X513047Y329115D01*
X512289Y330250D01*
X513047Y331385D01*
X513318Y332750D01*
X513240Y333146D01*
X514257Y334416D01*
X520369D01*
X522449Y332337D01*
D02*
G37*
G36*
X38795Y301463D02*
X39069Y301441D01*
X39341Y301405D01*
X39611Y301355D01*
X39879Y301291D01*
X40142Y301213D01*
X40401Y301121D01*
X40655Y301016D01*
X40903Y300898D01*
X41145Y300767D01*
X41379Y300623D01*
X41606Y300467D01*
X41824Y300300D01*
X42033Y300121D01*
X42232Y299932D01*
X42421Y299733D01*
X42600Y299524D01*
X42767Y299306D01*
X42923Y299079D01*
X43067Y298845D01*
X43198Y298603D01*
X43316Y298355D01*
X43421Y298101D01*
X43513Y297842D01*
X43591Y297579D01*
X43655Y297311D01*
X43705Y297041D01*
X43741Y296769D01*
X43763Y296495D01*
X43770Y296220D01*
X43763Y295945D01*
X43741Y295671D01*
X43705Y295399D01*
X43655Y295128D01*
X43591Y294861D01*
X43513Y294598D01*
X43421Y294339D01*
X43316Y294085D01*
X43198Y293836D01*
X43067Y293595D01*
X42923Y293361D01*
X42767Y293134D01*
X42600Y292916D01*
X42421Y292707D01*
X42232Y292508D01*
X42033Y292318D01*
X41824Y292140D01*
X41606Y291973D01*
X41379Y291817D01*
X41145Y291673D01*
X40903Y291542D01*
X40655Y291424D01*
X40401Y291319D01*
X40142Y291227D01*
X39879Y291149D01*
X39611Y291085D01*
X39341Y291035D01*
X39069Y290999D01*
X38795Y290977D01*
X38520Y290970D01*
X27520D01*
X27245Y290977D01*
X26971Y290999D01*
X26699Y291035D01*
X26428Y291085D01*
X26161Y291149D01*
X25898Y291227D01*
X25639Y291319D01*
X25385Y291424D01*
X25137Y291542D01*
X24895Y291673D01*
X24661Y291817D01*
X24434Y291973D01*
X24216Y292140D01*
X24007Y292318D01*
X23808Y292508D01*
X23619Y292707D01*
X23440Y292916D01*
X23273Y293134D01*
X23117Y293361D01*
X22973Y293595D01*
X22842Y293836D01*
X22724Y294085D01*
X22619Y294339D01*
X22527Y294598D01*
X22449Y294861D01*
X22385Y295128D01*
X22335Y295399D01*
X22299Y295671D01*
X22277Y295945D01*
X22270Y296220D01*
X22277Y296495D01*
X22299Y296769D01*
X22335Y297041D01*
X22385Y297311D01*
X22449Y297579D01*
X22527Y297842D01*
X22619Y298101D01*
X22724Y298355D01*
X22842Y298603D01*
X22973Y298845D01*
X23117Y299079D01*
X23273Y299306D01*
X23440Y299524D01*
X23619Y299733D01*
X23808Y299932D01*
X24007Y300121D01*
X24216Y300300D01*
X24434Y300467D01*
X24661Y300623D01*
X24895Y300767D01*
X25137Y300898D01*
X25385Y301016D01*
X25639Y301121D01*
X25898Y301213D01*
X26161Y301291D01*
X26428Y301355D01*
X26699Y301405D01*
X26971Y301441D01*
X27245Y301463D01*
X27520Y301470D01*
X38520D01*
X38795Y301463D01*
D02*
G37*
G36*
X547884Y281953D02*
X549250Y281681D01*
X550616Y281953D01*
X551292Y282405D01*
X551337Y282337D01*
X552673Y281444D01*
X554250Y281131D01*
X554586Y281197D01*
X554991Y280814D01*
X555475Y280079D01*
X555210Y278750D01*
Y278250D01*
X549250D01*
Y272328D01*
X548031D01*
X546470Y272018D01*
X545439Y271329D01*
X543031D01*
Y274773D01*
X525469D01*
Y270584D01*
X522717D01*
X521681Y272377D01*
X520127Y273932D01*
X518223Y275031D01*
X516099Y275600D01*
X513900D01*
X512948Y275345D01*
X512291Y276484D01*
X516520Y280712D01*
X517242Y281794D01*
X518543Y281822D01*
X519250Y281681D01*
X520616Y281953D01*
X521750Y282711D01*
X522884Y281953D01*
X524250Y281681D01*
X525616Y281953D01*
X526750Y282711D01*
X527884Y281953D01*
X529250Y281681D01*
X530616Y281953D01*
X531750Y282711D01*
X532884Y281953D01*
X534250Y281681D01*
X535616Y281953D01*
X536750Y282711D01*
X537884Y281953D01*
X539250Y281681D01*
X540616Y281953D01*
X541750Y282711D01*
X542884Y281953D01*
X544250Y281681D01*
X545616Y281953D01*
X546750Y282711D01*
X547884Y281953D01*
D02*
G37*
G36*
X510167Y303814D02*
X510314Y303667D01*
X510681Y303072D01*
Y285250D01*
X510828Y284513D01*
Y284451D01*
X502064Y275687D01*
X500794Y276213D01*
Y304181D01*
X509572D01*
X510167Y303814D01*
D02*
G37*
G36*
X38795Y244963D02*
X39069Y244941D01*
X39341Y244905D01*
X39611Y244855D01*
X39879Y244791D01*
X40142Y244713D01*
X40401Y244621D01*
X40655Y244516D01*
X40903Y244398D01*
X41145Y244267D01*
X41379Y244123D01*
X41606Y243967D01*
X41824Y243800D01*
X42033Y243622D01*
X42232Y243432D01*
X42421Y243233D01*
X42600Y243024D01*
X42767Y242806D01*
X42923Y242579D01*
X43067Y242345D01*
X43198Y242104D01*
X43316Y241855D01*
X43421Y241601D01*
X43513Y241342D01*
X43591Y241079D01*
X43655Y240812D01*
X43705Y240541D01*
X43741Y240269D01*
X43763Y239995D01*
X43770Y239720D01*
X43763Y239445D01*
X43741Y239171D01*
X43705Y238899D01*
X43655Y238629D01*
X43591Y238361D01*
X43513Y238098D01*
X43421Y237839D01*
X43316Y237585D01*
X43198Y237337D01*
X43067Y237095D01*
X42923Y236861D01*
X42767Y236634D01*
X42600Y236416D01*
X42421Y236207D01*
X42232Y236008D01*
X42033Y235819D01*
X41824Y235640D01*
X41606Y235473D01*
X41379Y235317D01*
X41145Y235173D01*
X40903Y235042D01*
X40655Y234924D01*
X40401Y234819D01*
X40142Y234727D01*
X39879Y234649D01*
X39611Y234585D01*
X39341Y234535D01*
X39069Y234499D01*
X38795Y234477D01*
X38520Y234470D01*
X27520D01*
X27245Y234477D01*
X26971Y234499D01*
X26699Y234535D01*
X26428Y234585D01*
X26161Y234649D01*
X25898Y234727D01*
X25639Y234819D01*
X25385Y234924D01*
X25137Y235042D01*
X24895Y235173D01*
X24661Y235317D01*
X24434Y235473D01*
X24216Y235640D01*
X24007Y235819D01*
X23808Y236008D01*
X23619Y236207D01*
X23440Y236416D01*
X23273Y236634D01*
X23117Y236861D01*
X22973Y237095D01*
X22842Y237337D01*
X22724Y237585D01*
X22619Y237839D01*
X22527Y238098D01*
X22449Y238361D01*
X22385Y238629D01*
X22335Y238899D01*
X22299Y239171D01*
X22277Y239445D01*
X22270Y239720D01*
X22277Y239995D01*
X22299Y240269D01*
X22335Y240541D01*
X22385Y240812D01*
X22449Y241079D01*
X22527Y241342D01*
X22619Y241601D01*
X22724Y241855D01*
X22842Y242104D01*
X22973Y242345D01*
X23117Y242579D01*
X23273Y242806D01*
X23440Y243024D01*
X23619Y243233D01*
X23808Y243432D01*
X24007Y243622D01*
X24216Y243800D01*
X24434Y243967D01*
X24661Y244123D01*
X24895Y244267D01*
X25137Y244398D01*
X25385Y244516D01*
X25639Y244621D01*
X25898Y244713D01*
X26161Y244791D01*
X26428Y244855D01*
X26699Y244905D01*
X26971Y244941D01*
X27245Y244963D01*
X27520Y244970D01*
X38520D01*
X38795Y244963D01*
D02*
G37*
G36*
X405416Y170000D02*
X405670Y168724D01*
X406393Y167642D01*
X409222Y164813D01*
X408736Y163640D01*
X408079D01*
X405818Y163034D01*
X403791Y161864D01*
X402136Y160209D01*
X400966Y158181D01*
X400387Y156020D01*
X409250D01*
Y153480D01*
X400387D01*
X400430Y153318D01*
X399288Y152673D01*
X398584Y153230D01*
Y295755D01*
X401928Y299098D01*
X402650Y300180D01*
X402904Y301455D01*
Y303350D01*
X403300D01*
Y313950D01*
X402982D01*
X402830Y314712D01*
X402107Y315794D01*
X401024Y316877D01*
X401510Y318050D01*
X403300D01*
Y320016D01*
X405416D01*
Y170000D01*
D02*
G37*
G36*
X391916Y297136D02*
Y151750D01*
X392170Y150474D01*
X392892Y149392D01*
X394415Y147870D01*
X393889Y146600D01*
X393151D01*
X391027Y146031D01*
X389123Y144932D01*
X387568Y143377D01*
X386469Y141473D01*
X385900Y139349D01*
Y137151D01*
X386097Y136414D01*
X384959Y135756D01*
X381954Y138761D01*
Y283150D01*
X385350D01*
Y292350D01*
X384084D01*
Y296500D01*
X384616Y297148D01*
X391906D01*
X391916Y297136D01*
D02*
G37*
G36*
X431726Y148299D02*
Y146488D01*
X431980Y145212D01*
X432702Y144130D01*
X434190Y142642D01*
X435272Y141920D01*
X436548Y141666D01*
X436710D01*
Y139770D01*
X442000D01*
Y137230D01*
X436710D01*
Y134460D01*
X441522D01*
X442008Y133287D01*
X438081Y129360D01*
X398041D01*
X397752Y130630D01*
X399377Y131568D01*
X400932Y133123D01*
X402031Y135027D01*
X402068Y135166D01*
X419750D01*
Y135000D01*
X429250D01*
Y147460D01*
X429790D01*
Y148377D01*
X430982Y148899D01*
X431726Y148299D01*
D02*
G37*
G36*
X478942Y303349D02*
Y230474D01*
X479196Y229198D01*
X479918Y228116D01*
X510627Y197407D01*
Y116869D01*
X508973Y115214D01*
X479412D01*
X479220Y115676D01*
X478996Y116484D01*
X480031Y118277D01*
X480600Y120401D01*
Y122599D01*
X480031Y124723D01*
X479594Y125480D01*
X480327Y126750D01*
X489500D01*
Y130416D01*
X499012D01*
X500288Y130670D01*
X501370Y131393D01*
X502857Y132881D01*
X503580Y133962D01*
X503834Y135238D01*
Y192250D01*
X503580Y193526D01*
X502857Y194608D01*
X475334Y222131D01*
Y301400D01*
X477769Y303835D01*
X478942Y303349D01*
D02*
G37*
%LPC*%
G36*
X526423Y362489D02*
Y354895D01*
X534016D01*
X533437Y357057D01*
X532266Y359084D01*
X530611Y360739D01*
X528584Y361909D01*
X526423Y362489D01*
D02*
G37*
G36*
X523882Y362489D02*
X523629Y362421D01*
X521721Y361909D01*
X519694Y360739D01*
X518039Y359084D01*
X516868Y357057D01*
X516289Y354895D01*
X523882D01*
Y362489D01*
D02*
G37*
G36*
X534016Y352355D02*
X526423D01*
Y344762D01*
X528584Y345341D01*
X530611Y346511D01*
X532266Y348167D01*
X533437Y350194D01*
X534016Y352355D01*
D02*
G37*
G36*
X523882D02*
X516289D01*
X516868Y350194D01*
X518039Y348167D01*
X519694Y346511D01*
X521721Y345341D01*
X523882Y344762D01*
Y352355D01*
D02*
G37*
G36*
X465540Y357540D02*
X459270D01*
Y350020D01*
X465540D01*
Y357540D01*
D02*
G37*
G36*
Y347480D02*
X459270D01*
Y339960D01*
X465540D01*
Y347480D01*
D02*
G37*
G36*
X414020Y341113D02*
Y333520D01*
X421613D01*
X421034Y335681D01*
X419864Y337708D01*
X418209Y339364D01*
X416181Y340534D01*
X414020Y341113D01*
D02*
G37*
G36*
X424770Y218363D02*
Y210770D01*
X432363D01*
X431784Y212932D01*
X430614Y214959D01*
X428958Y216614D01*
X426931Y217784D01*
X424770Y218363D01*
D02*
G37*
G36*
X422230D02*
X420068Y217784D01*
X418041Y216614D01*
X416386Y214959D01*
X415216Y212932D01*
X414636Y210770D01*
X422230D01*
Y218363D01*
D02*
G37*
G36*
X432363Y208230D02*
X424770D01*
Y200637D01*
X426931Y201216D01*
X428958Y202386D01*
X430614Y204042D01*
X431784Y206069D01*
X432363Y208230D01*
D02*
G37*
G36*
X422230D02*
X414636D01*
X415216Y206069D01*
X416386Y204042D01*
X418041Y202386D01*
X420068Y201216D01*
X422230Y200637D01*
Y208230D01*
D02*
G37*
G36*
X430790Y196790D02*
X424520D01*
Y189270D01*
X430790D01*
Y196790D01*
D02*
G37*
G36*
X421980D02*
X415710D01*
Y189270D01*
X421980D01*
Y196790D01*
D02*
G37*
G36*
Y186730D02*
X415710D01*
Y179210D01*
X421980D01*
Y186730D01*
D02*
G37*
G36*
X369730Y320363D02*
X367569Y319784D01*
X365541Y318614D01*
X363886Y316959D01*
X362716Y314931D01*
X362137Y312770D01*
X369730D01*
Y320363D01*
D02*
G37*
G36*
X38520Y298470D02*
X27520D01*
X27402Y298467D01*
X27285Y298458D01*
X27168Y298442D01*
X27052Y298421D01*
X26938Y298393D01*
X26825Y298360D01*
X26714Y298321D01*
X26605Y298276D01*
X26498Y298225D01*
X26395Y298169D01*
X26295Y298107D01*
X26198Y298040D01*
X26104Y297969D01*
X26014Y297892D01*
X25929Y297811D01*
X25848Y297726D01*
X25771Y297636D01*
X25700Y297542D01*
X25633Y297445D01*
X25571Y297345D01*
X25515Y297241D01*
X25464Y297135D01*
X25419Y297026D01*
X25380Y296915D01*
X25347Y296802D01*
X25319Y296688D01*
X25298Y296572D01*
X25282Y296455D01*
X25273Y296338D01*
X25270Y296220D01*
X25273Y296102D01*
X25282Y295985D01*
X25298Y295868D01*
X25319Y295752D01*
X25347Y295638D01*
X25380Y295525D01*
X25419Y295414D01*
X25464Y295305D01*
X25515Y295198D01*
X25571Y295095D01*
X25633Y294995D01*
X25700Y294897D01*
X25771Y294804D01*
X25848Y294714D01*
X25929Y294629D01*
X26014Y294548D01*
X26104Y294471D01*
X26198Y294400D01*
X26295Y294333D01*
X26395Y294271D01*
X26498Y294215D01*
X26605Y294165D01*
X26714Y294119D01*
X26825Y294080D01*
X26938Y294047D01*
X27052Y294019D01*
X27168Y293998D01*
X27285Y293982D01*
X27402Y293973D01*
X27520Y293970D01*
X38520D01*
X38638Y293973D01*
X38755Y293982D01*
X38872Y293998D01*
X38988Y294019D01*
X39102Y294047D01*
X39215Y294080D01*
X39326Y294119D01*
X39435Y294165D01*
X39541Y294215D01*
X39645Y294271D01*
X39745Y294333D01*
X39843Y294400D01*
X39936Y294471D01*
X40026Y294548D01*
X40111Y294629D01*
X40192Y294714D01*
X40269Y294804D01*
X40340Y294897D01*
X40407Y294995D01*
X40469Y295095D01*
X40525Y295198D01*
X40575Y295305D01*
X40620Y295414D01*
X40660Y295525D01*
X40693Y295638D01*
X40721Y295752D01*
X40742Y295868D01*
X40758Y295985D01*
X40767Y296102D01*
X40770Y296220D01*
X40767Y296338D01*
X40758Y296455D01*
X40742Y296572D01*
X40721Y296688D01*
X40693Y296802D01*
X40660Y296915D01*
X40620Y297026D01*
X40575Y297135D01*
X40525Y297241D01*
X40469Y297345D01*
X40407Y297445D01*
X40340Y297542D01*
X40269Y297636D01*
X40192Y297726D01*
X40111Y297811D01*
X40026Y297892D01*
X39936Y297969D01*
X39843Y298040D01*
X39745Y298107D01*
X39645Y298169D01*
X39541Y298225D01*
X39435Y298276D01*
X39326Y298321D01*
X39215Y298360D01*
X39102Y298393D01*
X38988Y298421D01*
X38872Y298442D01*
X38755Y298458D01*
X38638Y298467D01*
X38520Y298470D01*
D02*
G37*
G36*
Y241970D02*
X27520D01*
X27402Y241967D01*
X27285Y241958D01*
X27168Y241942D01*
X27052Y241921D01*
X26938Y241893D01*
X26825Y241860D01*
X26714Y241821D01*
X26605Y241775D01*
X26498Y241725D01*
X26395Y241669D01*
X26295Y241607D01*
X26198Y241540D01*
X26104Y241469D01*
X26014Y241392D01*
X25929Y241311D01*
X25848Y241226D01*
X25771Y241136D01*
X25700Y241042D01*
X25633Y240945D01*
X25571Y240845D01*
X25515Y240742D01*
X25464Y240635D01*
X25419Y240526D01*
X25380Y240415D01*
X25347Y240302D01*
X25319Y240188D01*
X25298Y240072D01*
X25282Y239955D01*
X25273Y239838D01*
X25270Y239720D01*
X25273Y239602D01*
X25282Y239485D01*
X25298Y239368D01*
X25319Y239252D01*
X25347Y239138D01*
X25380Y239025D01*
X25419Y238914D01*
X25464Y238805D01*
X25515Y238699D01*
X25571Y238595D01*
X25633Y238495D01*
X25700Y238398D01*
X25771Y238304D01*
X25848Y238214D01*
X25929Y238129D01*
X26014Y238048D01*
X26104Y237971D01*
X26198Y237900D01*
X26295Y237833D01*
X26395Y237771D01*
X26498Y237715D01*
X26605Y237665D01*
X26714Y237619D01*
X26825Y237580D01*
X26938Y237547D01*
X27052Y237519D01*
X27168Y237498D01*
X27285Y237482D01*
X27402Y237473D01*
X27520Y237470D01*
X38520D01*
X38638Y237473D01*
X38755Y237482D01*
X38872Y237498D01*
X38988Y237519D01*
X39102Y237547D01*
X39215Y237580D01*
X39326Y237619D01*
X39435Y237665D01*
X39541Y237715D01*
X39645Y237771D01*
X39745Y237833D01*
X39843Y237900D01*
X39936Y237971D01*
X40026Y238048D01*
X40111Y238129D01*
X40192Y238214D01*
X40269Y238304D01*
X40340Y238398D01*
X40407Y238495D01*
X40469Y238595D01*
X40525Y238699D01*
X40575Y238805D01*
X40620Y238914D01*
X40660Y239025D01*
X40693Y239138D01*
X40721Y239252D01*
X40742Y239368D01*
X40758Y239485D01*
X40767Y239602D01*
X40770Y239720D01*
X40767Y239838D01*
X40758Y239955D01*
X40742Y240072D01*
X40721Y240188D01*
X40693Y240302D01*
X40660Y240415D01*
X40620Y240526D01*
X40575Y240635D01*
X40525Y240742D01*
X40469Y240845D01*
X40407Y240945D01*
X40340Y241042D01*
X40269Y241136D01*
X40192Y241226D01*
X40111Y241311D01*
X40026Y241392D01*
X39936Y241469D01*
X39843Y241540D01*
X39745Y241607D01*
X39645Y241669D01*
X39541Y241725D01*
X39435Y241775D01*
X39326Y241821D01*
X39215Y241860D01*
X39102Y241893D01*
X38988Y241921D01*
X38872Y241942D01*
X38755Y241958D01*
X38638Y241967D01*
X38520Y241970D01*
D02*
G37*
%LPD*%
D12*
X564250Y294250D02*
X564441Y294059D01*
Y282309D02*
Y294059D01*
Y282309D02*
X566500Y280250D01*
X569442Y282309D02*
X570500Y281250D01*
X569442Y282309D02*
Y294059D01*
X569250Y294250D02*
X569442Y294059D01*
D16*
X259513Y378750D02*
X260513Y379750D01*
X260013Y352120D02*
Y378750D01*
X260513Y379750D02*
X271250D01*
X287750D02*
X288250Y380250D01*
X302929D01*
X311500Y365500D02*
X316230Y360770D01*
X311500Y365500D02*
Y380250D01*
X316230Y303984D02*
Y360770D01*
X321500Y99750D02*
X339000D01*
X339250Y100000D01*
X363250Y99500D02*
X377000D01*
X362750Y100000D02*
X363250Y99500D01*
X364000Y141750D02*
X393870Y111880D01*
X472250Y121500D02*
Y131500D01*
X510354Y111880D02*
X513961Y115488D01*
X472250Y131500D02*
X474500Y133750D01*
X393870Y111880D02*
X510354D01*
X474500Y133750D02*
X499012D01*
X448056Y134620D02*
Y153892D01*
X389974Y126026D02*
X439462D01*
X448056Y134620D01*
X554250Y294250D02*
Y342762D01*
X504000Y244030D02*
Y272908D01*
X515000Y267250D02*
X534250D01*
X497460Y234792D02*
Y307538D01*
X504000Y272908D02*
X514162Y283070D01*
X17526Y209804D02*
Y372126D01*
X24000Y378600D01*
X17526Y209804D02*
X26416Y200914D01*
X142109D01*
X98500Y166000D02*
Y185250D01*
X104500Y191250D02*
X118000D01*
X98500Y185250D02*
X104500Y191250D01*
X98500Y142458D02*
Y166000D01*
X144639Y213610D02*
X144750Y213500D01*
X394500Y138500D02*
X424500D01*
X394250Y138250D02*
X394500Y138500D01*
X378620Y137380D02*
X389974Y126026D01*
X378620Y137380D02*
Y285620D01*
X380750Y287750D01*
X443250Y151730D02*
Y172414D01*
Y188000D01*
Y172414D02*
X454914Y160750D01*
X448056Y153892D02*
X454914Y160750D01*
X423500Y178000D02*
Y187750D01*
Y178000D02*
X432000Y169500D01*
X423250Y188000D02*
X423500Y187750D01*
X408750Y170000D02*
Y321862D01*
X420250Y158500D02*
X426375D01*
X408750Y170000D02*
X420250Y158500D01*
X395250Y151750D02*
X401870Y145130D01*
X395250Y297136D02*
X399570Y301455D01*
X395250Y151750D02*
Y297136D01*
X401870Y145130D02*
X408302D01*
X399570Y301455D02*
Y308470D01*
X399750Y308650D01*
X210600Y86900D02*
Y106650D01*
Y86900D02*
X211250Y86250D01*
X143612Y315388D02*
Y322400D01*
X136262Y329750D02*
X143612Y322400D01*
Y315388D02*
X144750Y314250D01*
X121250Y329750D02*
X136262D01*
X153636Y340614D02*
X154250Y340000D01*
X106584Y340614D02*
X153636D01*
X371000Y311000D02*
X387400D01*
X389750Y308650D02*
Y310400D01*
X387720Y310680D02*
X389470D01*
X389750Y310400D01*
X387400Y311000D02*
X387720Y310680D01*
X380500Y317718D02*
X381988Y316230D01*
X396956D02*
X399750Y313436D01*
X381988Y316230D02*
X396956D01*
X380500Y317718D02*
Y366022D01*
X351536Y308610D02*
X356162Y303984D01*
X351536Y308610D02*
Y360172D01*
X316230Y303984D02*
X356162D01*
X351536Y360172D02*
X403364Y412000D01*
X500750Y347750D02*
X549262D01*
X535192Y252192D02*
X537750Y249634D01*
X534250Y253134D02*
X535192Y252192D01*
X376768Y300482D02*
X380750Y296500D01*
Y287750D02*
Y296500D01*
X524806Y334694D02*
X531556D01*
X500750Y337750D02*
X521750D01*
X524806Y334694D01*
X537750Y232750D02*
Y249634D01*
X595920Y209500D02*
X597408Y210988D01*
Y219900D01*
X538530Y209500D02*
X595920D01*
X504000Y244030D02*
X538530Y209500D01*
X497672Y307750D02*
X500750D01*
X482276Y230474D02*
X513961Y198789D01*
X497460Y234792D02*
X532252Y200000D01*
X497460Y307538D02*
X497672Y307750D01*
X482276Y230474D02*
Y306636D01*
X472000Y220750D02*
Y302781D01*
X559480Y400230D02*
X562200Y402950D01*
Y441975D01*
X559480Y385805D02*
Y400230D01*
X540762Y417500D02*
X549020Y409242D01*
Y385605D02*
Y409242D01*
X549250Y376250D02*
Y385375D01*
X549020Y385605D02*
X549250Y385375D01*
X520250Y417500D02*
X540762D01*
X511400Y426350D02*
Y441975D01*
Y426350D02*
X520250Y417500D01*
X559250Y376250D02*
X559338Y376338D01*
Y385663D02*
X559480Y385805D01*
X559338Y376338D02*
Y385663D01*
X564250Y387720D02*
X587600Y411070D01*
Y474025D01*
X564250Y376250D02*
Y387720D01*
X569250Y376250D02*
X577328D01*
X613000Y411922D02*
Y441975D01*
X577328Y376250D02*
X613000Y411922D01*
X376768Y300482D02*
X392176D01*
X103632Y340614D02*
X106584D01*
X582930Y362750D02*
Y367792D01*
X582750Y362750D02*
X582930D01*
Y367792D02*
X628142Y413004D01*
Y451006D01*
X638400Y461264D01*
Y474025D01*
X536800Y446710D02*
Y474025D01*
Y446710D02*
X554250Y429260D01*
Y376250D02*
Y429260D01*
X486000Y419100D02*
Y474025D01*
Y419100D02*
X497684Y407416D01*
X531550D01*
X544250Y394716D01*
Y376250D02*
Y394716D01*
X539250Y376250D02*
Y387342D01*
X536448Y390144D02*
X539250Y387342D01*
X494128Y390144D02*
X536448D01*
X460600Y423672D02*
X494128Y390144D01*
X460600Y423672D02*
Y441975D01*
X454914Y160750D02*
X474500D01*
X443020Y151500D02*
X443250Y151730D01*
X442000Y151500D02*
X443020D01*
X559250Y281500D02*
Y294250D01*
X478000Y338690D02*
Y348750D01*
X461948Y322638D02*
X478000Y338690D01*
X142109Y200914D02*
X244348D01*
X139766Y198571D02*
X142109Y200914D01*
X420816Y369000D02*
X431500D01*
X411988Y360172D02*
X420816Y369000D01*
X394750Y303056D02*
Y308650D01*
X392176Y300482D02*
X394750Y303056D01*
X403364Y412000D02*
X430250D01*
X359664Y300482D02*
X376768D01*
X356162Y303984D02*
X359664Y300482D01*
X306000Y303984D02*
X316230D01*
X244348Y200914D02*
X244434Y201000D01*
X154011Y248239D02*
Y274500D01*
Y248239D02*
X156500Y245750D01*
X173058D01*
X174000Y244808D01*
X154011Y274500D02*
X256334D01*
X262285Y280450D01*
X262600D01*
Y303634D01*
X262500Y303734D02*
X262600Y303634D01*
X27000Y93950D02*
X28200Y92750D01*
X48792D01*
X98500Y142458D01*
X173500Y229192D02*
X174000Y228692D01*
X117508Y229192D02*
X173500D01*
X117508D02*
X133090Y213610D01*
X116750Y229192D02*
X117508D01*
X133090Y213610D02*
X144639D01*
X116308Y228750D02*
X116750Y229192D01*
X100500Y228750D02*
X116308D01*
X74280Y254970D02*
X100500Y228750D01*
X59820Y254970D02*
X74280D01*
X211250Y86250D02*
X285000D01*
X298250Y99500D01*
X312250D01*
X312500Y99750D01*
Y127750D01*
X308000Y132250D02*
X312500Y127750D01*
X308000Y132250D02*
Y140751D01*
X308750Y141500D01*
Y280100D01*
X308400Y280450D02*
X308750Y280100D01*
X308400Y280450D02*
X353950D01*
X361000Y287500D01*
X372500D01*
X372750Y287750D01*
X415249Y151500D02*
X424500D01*
X262500Y318250D02*
Y349633D01*
X260013Y352120D02*
X262500Y349633D01*
X368250Y208750D02*
Y275249D01*
X423250Y188000D02*
X423500Y188250D01*
Y209500D01*
X549262Y347750D02*
X554250Y342762D01*
X306000Y318500D02*
X306500Y319000D01*
Y333500D01*
X423250Y332250D02*
X441750Y350750D01*
X372750Y279750D02*
Y287750D01*
X368250Y275249D02*
X372750Y279750D01*
X412750Y332250D02*
X423250D01*
X394750Y323350D02*
Y334501D01*
X392250Y337001D02*
X394750Y334501D01*
X456000Y350750D02*
X458000Y348750D01*
X441750Y350750D02*
X456000D01*
X424500Y151500D02*
X424730Y151270D01*
X427104D01*
X430520Y147854D01*
Y143980D02*
Y147854D01*
Y143980D02*
X436000Y138500D01*
X442000D01*
X205250Y378750D02*
X259513D01*
X201750Y382250D02*
X205250Y378750D01*
X201750Y382250D02*
Y460250D01*
X197000Y465000D02*
X201750Y460250D01*
X176500Y465000D02*
X197000D01*
X175750Y465750D02*
X176500Y465000D01*
X155500Y465750D02*
X175750D01*
X119150Y429400D02*
X155500Y465750D01*
X24000Y429400D02*
X119150D01*
X499012Y133750D02*
X500500Y135238D01*
Y192250D01*
X472000Y220750D02*
X500500Y192250D01*
X472000Y302781D02*
X485540Y316321D01*
Y328286D01*
X489916Y332662D01*
X500662D01*
X500750Y332750D01*
X105942Y245308D02*
X116750D01*
X70280Y280970D02*
X105942Y245308D01*
X59820Y280970D02*
X70280D01*
X116750Y245308D02*
X137762D01*
X139250Y246796D01*
Y273739D01*
X138489Y274500D02*
X139250Y273739D01*
X325250Y141500D02*
X325499Y141750D01*
X345214D01*
X24000Y454800D02*
X64050D01*
X74250Y465000D01*
X101500D01*
X500662Y342662D02*
X500750Y342750D01*
X489916Y342662D02*
X500662D01*
X481000Y333746D02*
X489916Y342662D01*
X481000Y325750D02*
Y333746D01*
X445402Y290152D02*
X481000Y325750D01*
X426403Y290152D02*
X445402D01*
X399750Y323350D02*
X407262D01*
X408750Y321862D01*
X426375Y158500D02*
X435060Y149815D01*
Y146488D02*
Y149815D01*
Y146488D02*
X436548Y145000D01*
X442000D01*
X399750Y323350D02*
Y325100D01*
X400030Y325380D01*
X401512D01*
X403000Y326868D01*
Y344534D01*
X408432Y349966D01*
X425682D01*
X436087Y360370D01*
X442512D01*
X444000Y361858D01*
Y369000D01*
X475922D01*
X487172Y357750D01*
X500750D01*
X408302Y145130D02*
X408432Y145000D01*
X424500D01*
X399750Y308650D02*
Y313436D01*
X380500Y366022D02*
X407444Y392966D01*
X432872D01*
X442750Y402844D01*
Y412000D01*
X457000D01*
X500750Y368250D01*
Y362750D02*
Y368250D01*
X514162Y283070D02*
Y294162D01*
X514250Y294250D01*
X353785Y141750D02*
X364000D01*
X513961Y115488D02*
Y198789D01*
X482276Y306636D02*
X488302Y312662D01*
X500662D01*
X500750Y312750D01*
X377000Y99500D02*
X530765Y99500D01*
X532252Y100988D01*
Y200000D01*
X173500Y66000D02*
X173750Y66250D01*
X211250D01*
X553000D01*
X612750Y126000D01*
Y332000D01*
X602250Y342500D02*
X612750Y332000D01*
X601750Y342500D02*
X602250D01*
X601500Y342750D02*
X601750Y342500D01*
X582750Y342750D02*
X601500D01*
X101250Y329750D02*
Y338232D01*
X103632Y340614D01*
X519338Y294338D02*
Y305084D01*
X101500Y345698D02*
Y365000D01*
Y345698D02*
X106584Y340614D01*
X530340Y316086D02*
X538586D01*
X519338Y305084D02*
X530340Y316086D01*
X519250Y294250D02*
X519338Y294338D01*
X173500Y166000D02*
X177750Y161750D01*
X212500D01*
D17*
X287750Y379750D02*
D03*
X271250D02*
D03*
X308750Y141500D02*
D03*
X325250D02*
D03*
D18*
X311500Y380250D02*
D03*
X302929D02*
D03*
X353785Y141750D02*
D03*
X345214D02*
D03*
D19*
X362750Y100000D02*
D03*
X339250D02*
D03*
D20*
X597500Y250750D02*
D03*
Y270750D02*
D03*
X577250Y251000D02*
D03*
Y271000D02*
D03*
X557500Y251250D02*
D03*
Y271250D02*
D03*
X211250Y66250D02*
D03*
Y86250D02*
D03*
D21*
X557739Y230000D02*
D03*
X573261D02*
D03*
X138489Y274500D02*
D03*
X154011D02*
D03*
D22*
X534250Y253134D02*
D03*
Y267250D02*
D03*
D23*
X173500Y166000D02*
D03*
X98500D02*
D03*
Y66000D02*
D03*
X173500D02*
D03*
X101500Y365000D02*
D03*
X176500D02*
D03*
Y465000D02*
D03*
X101500D02*
D03*
D24*
X212500Y161750D02*
D03*
Y174250D02*
D03*
D25*
X312500Y99750D02*
D03*
X321500D02*
D03*
D26*
X474500Y133750D02*
D03*
Y160750D02*
D03*
D27*
X423250Y188000D02*
D03*
X443250D02*
D03*
X478000Y348750D02*
D03*
X458000D02*
D03*
X121250Y329750D02*
D03*
X101250D02*
D03*
D28*
X514250Y294250D02*
D03*
X519250D02*
D03*
X524250D02*
D03*
X529250D02*
D03*
X534250D02*
D03*
X539250D02*
D03*
X544250D02*
D03*
X549250D02*
D03*
X554250D02*
D03*
X559250D02*
D03*
X564250D02*
D03*
X569250D02*
D03*
Y376250D02*
D03*
X564250D02*
D03*
X559250D02*
D03*
X554250D02*
D03*
X549250D02*
D03*
X544250D02*
D03*
X539250D02*
D03*
X534250D02*
D03*
X529250D02*
D03*
X524250D02*
D03*
X519250D02*
D03*
X514250D02*
D03*
D29*
X582750Y307750D02*
D03*
Y312750D02*
D03*
Y317750D02*
D03*
Y322750D02*
D03*
Y327750D02*
D03*
Y332750D02*
D03*
Y337750D02*
D03*
Y342750D02*
D03*
Y347750D02*
D03*
Y352750D02*
D03*
Y357750D02*
D03*
Y362750D02*
D03*
X500750D02*
D03*
Y357750D02*
D03*
Y352750D02*
D03*
Y347750D02*
D03*
Y342750D02*
D03*
Y337750D02*
D03*
Y332750D02*
D03*
Y327750D02*
D03*
Y322750D02*
D03*
Y317750D02*
D03*
Y312750D02*
D03*
Y307750D02*
D03*
D30*
X442750Y412000D02*
D03*
X430250D02*
D03*
X444000Y369000D02*
D03*
X431500D02*
D03*
D31*
X399750Y323350D02*
D03*
X394750D02*
D03*
X389750D02*
D03*
Y308650D02*
D03*
X394750D02*
D03*
X399750D02*
D03*
D32*
X306000Y318500D02*
D03*
Y303984D02*
D03*
X262500Y318250D02*
D03*
Y303734D02*
D03*
D33*
X308400Y280450D02*
D03*
D34*
X285500D02*
D03*
X262600D02*
D03*
D35*
X285500Y214550D02*
D03*
D36*
X33020Y256720D02*
D03*
Y279220D02*
D03*
D37*
X59820Y254970D02*
D03*
Y261470D02*
D03*
Y267970D02*
D03*
Y274470D02*
D03*
Y280970D02*
D03*
D38*
X174000Y228692D02*
D03*
Y244808D02*
D03*
X116750Y245308D02*
D03*
Y229192D02*
D03*
D39*
X380750Y287750D02*
D03*
X372750D02*
D03*
D40*
X460600Y441975D02*
D03*
X486000Y474025D02*
D03*
X511400Y441975D02*
D03*
X536800Y474025D02*
D03*
X562200Y441975D02*
D03*
X587600Y474025D02*
D03*
X613000Y441975D02*
D03*
X638400Y474025D02*
D03*
D41*
X424500Y151500D02*
D03*
Y145000D02*
D03*
Y138500D02*
D03*
X442000Y151500D02*
D03*
Y145000D02*
D03*
Y138500D02*
D03*
D51*
X27000Y144750D02*
D03*
X24000Y454800D02*
D03*
D52*
X27000Y119350D02*
D03*
Y93950D02*
D03*
Y68550D02*
D03*
X24000Y429400D02*
D03*
Y404000D02*
D03*
Y378600D02*
D03*
D59*
X41520Y237970D02*
D03*
Y297970D02*
D03*
D60*
X285500Y198500D02*
Y214550D01*
X261250Y174250D02*
X285500Y198500D01*
X212500Y174250D02*
X261250D01*
X285500Y280450D02*
X286403Y281353D01*
Y285896D01*
X304492Y303984D01*
X306000D01*
X534250Y267250D02*
X547031D01*
X548031Y268250D01*
X554500D01*
X557500Y271250D01*
X478000Y348750D02*
Y349260D01*
X481000Y352260D01*
X485295D01*
X557500Y271250D02*
X559289Y273039D01*
Y278750D01*
X28000Y70200D02*
X48700D01*
X285500Y214550D02*
Y280450D01*
X139766Y161266D02*
Y198571D01*
X48700Y70200D02*
X139766Y161266D01*
X271950Y201000D02*
X285500Y214550D01*
X244434Y201000D02*
X271950D01*
X569000Y273656D02*
X574594D01*
X577250Y271000D01*
Y277000D01*
D61*
X485295Y352260D02*
X485785Y352750D01*
X488250D01*
X559250Y278789D02*
X559289Y278750D01*
X559250Y278789D02*
Y281500D01*
X566500Y278449D02*
Y280250D01*
Y278449D02*
X567250Y277700D01*
Y275406D02*
Y277700D01*
Y275406D02*
X569000Y273656D01*
X577250Y277000D02*
Y278743D01*
X575493Y280500D02*
X577250Y278743D01*
X571250Y280500D02*
X575493D01*
X570500Y281250D02*
X571250Y280500D01*
D62*
X488250Y352750D02*
X500750D01*
D63*
X535192Y252192D02*
X556558D01*
X305875Y318375D02*
X306000Y318500D01*
X262625Y318375D02*
X305875D01*
X262500Y318250D02*
X262625Y318375D01*
X557619Y230119D02*
Y251130D01*
Y230119D02*
X557739Y230000D01*
X557626Y251125D02*
X577125D01*
X577250Y251000D01*
X577375Y250875D01*
X597375D01*
X597500Y250750D01*
X577250Y232791D02*
Y251000D01*
X574459Y230000D02*
X577250Y232791D01*
X573261Y230000D02*
X574459D01*
X577250Y271000D02*
X577375Y270875D01*
X597375D01*
X597500Y270750D01*
D64*
X33020Y239720D02*
D03*
Y296220D02*
D03*
D65*
X660400Y355600D02*
D03*
X139700Y25400D02*
D03*
X660400Y76200D02*
D03*
X152400Y508000D02*
D03*
D66*
X457200Y25400D02*
D03*
X431800D02*
D03*
X406400D02*
D03*
X381000D02*
D03*
X355600D02*
D03*
X330200D02*
D03*
X304800D02*
D03*
X508000D02*
D03*
X533400D02*
D03*
X558800D02*
D03*
X584200D02*
D03*
X609600D02*
D03*
X661670Y304800D02*
D03*
X636270Y279400D02*
D03*
X661670D02*
D03*
X636270Y254000D02*
D03*
X661670D02*
D03*
X457200Y508000D02*
D03*
X482600D02*
D03*
X508000D02*
D03*
X533400D02*
D03*
X558800D02*
D03*
X584200D02*
D03*
X609600D02*
D03*
X187960D02*
D03*
X213360D02*
D03*
X238760D02*
D03*
X264160D02*
D03*
X289560D02*
D03*
X314960D02*
D03*
X340360D02*
D03*
X365760D02*
D03*
X391160D02*
D03*
D67*
X279400Y25400D02*
D03*
X635000D02*
D03*
Y508000D02*
D03*
X416560D02*
D03*
D68*
X636270Y304800D02*
D03*
D69*
X472250Y121500D02*
D03*
X515000Y267250D02*
D03*
X118000Y191250D02*
D03*
X144750Y213500D02*
D03*
X394250Y138250D02*
D03*
X432000Y169500D02*
D03*
X409250Y154750D02*
D03*
X210600Y106650D02*
D03*
X368250Y208750D02*
D03*
X144750Y314250D02*
D03*
X154250Y340000D02*
D03*
X392250Y337001D02*
D03*
X371000Y311500D02*
D03*
X525153Y353625D02*
D03*
X531556Y334694D02*
D03*
X540500Y320749D02*
D03*
X426403Y290152D02*
D03*
X461948Y322638D02*
D03*
X597408Y219900D02*
D03*
X537750Y232750D02*
D03*
X411988Y360172D02*
D03*
X351536D02*
D03*
X423500Y209500D02*
D03*
X306500Y333500D02*
D03*
X441750Y350750D02*
D03*
X412750Y332250D02*
D03*
M02*
