G04*
G04 #@! TF.GenerationSoftware,Altium Limited,Altium Designer,23.10.1 (27)*
G04*
G04 Layer_Color=255*
%FSLAX44Y44*%
%MOMM*%
G71*
G04*
G04 #@! TF.SameCoordinates,DC49990F-6EA9-493E-B2B0-75892BC7290B*
G04*
G04*
G04 #@! TF.FilePolarity,Positive*
G04*
G01*
G75*
%ADD51R,1.5200X1.5200*%
%ADD52C,1.5200*%
%ADD64C,0.4500*%
%ADD65C,3.1750*%
%ADD66C,1.7000*%
%ADD67R,1.7000X1.7000*%
%ADD68R,1.7000X1.7000*%
D51*
X27000Y144750D02*
D03*
X24000Y454800D02*
D03*
D52*
X27000Y119350D02*
D03*
Y93950D02*
D03*
Y68550D02*
D03*
X24000Y429400D02*
D03*
Y404000D02*
D03*
Y378600D02*
D03*
D64*
X33020Y239720D02*
D03*
Y296220D02*
D03*
D65*
X660400Y355600D02*
D03*
X139700Y25400D02*
D03*
X660400Y76200D02*
D03*
X152400Y508000D02*
D03*
D66*
X457200Y25400D02*
D03*
X431800D02*
D03*
X406400D02*
D03*
X381000D02*
D03*
X355600D02*
D03*
X330200D02*
D03*
X304800D02*
D03*
X508000D02*
D03*
X533400D02*
D03*
X558800D02*
D03*
X584200D02*
D03*
X609600D02*
D03*
X661670Y304800D02*
D03*
X636270Y279400D02*
D03*
X661670D02*
D03*
X636270Y254000D02*
D03*
X661670D02*
D03*
X457200Y508000D02*
D03*
X482600D02*
D03*
X508000D02*
D03*
X533400D02*
D03*
X558800D02*
D03*
X584200D02*
D03*
X609600D02*
D03*
X187960D02*
D03*
X213360D02*
D03*
X238760D02*
D03*
X264160D02*
D03*
X289560D02*
D03*
X314960D02*
D03*
X340360D02*
D03*
X365760D02*
D03*
X391160D02*
D03*
D67*
X279400Y25400D02*
D03*
X635000D02*
D03*
Y508000D02*
D03*
X416560D02*
D03*
D68*
X636270Y304800D02*
D03*
M02*
