M48
;Layer_Color=9474304
;FILE_FORMAT=4:4
METRIC,LZ
;TYPE=PLATED
T01F00S00C0.7112
T02F00S00C1.0200
T03F00S00C1.1000
T04F00S00C3.1750
;TYPE=NON_PLATED
T05F00S00C0.4500
%
T01
X0053775Y0023275
X00515Y0026725
X00597408Y002199
X004235Y002095
X00432Y001695
X0040925Y0015475
X0039425Y0013825
X0047225Y001215
X0036825Y0020875
X0014475Y002135
X00118Y0019125
X002106Y0010665
X0014475Y0031425
X0015425Y0034
X003065Y003335
X00351536Y00360172
X00411988
X0041275Y0033225
X0039225Y00337001
X00371Y003115
X00426403Y00290152
X00461948Y00322638
X0044175Y0035075
X00525153Y00353625
X00531556Y00334694
X005405Y00320749
T02
X00027Y0006855
Y0009395
Y0011935
Y0014475
X00024Y003786
Y00404
Y004294
Y004548
T03
X005334Y000254
X005588
X005842
X006096
X00635
X0063627Y00254
X0066167
X00508Y000254
X004572
X004318
X004064
X00381
X003556
X003302
X003048
X002794
X0028956Y00508
X0026416
X0023876
X0021336
X0018796
X0031496
X0034036
X0036576
X0039116
X0041656
X004572
X004826
X00508
X005334
X005588
X005842
X006096
X00635
X0063627Y003048
X0066167
Y002794
X0063627
T04
X006604Y000762
X001397Y000254
X001524Y00508
X006604Y003556
T05
X0003302Y0023972
Y0029622
M30
